<svg xmlns="http://www.w3.org/2000/svg" viewBox="0 0 1440 720">
  <rect width="1440" height="720" fill="#070707"/>
  <g fill="#9a9a9a" opacity="0.95">
    <path d="M144 179l53-38 86-16 85 11 52 31 22 40-7 47-34 34-30 55-52 23-40-13-43 17-43-30-54-11-13-45 24-53 45-27 7-25-58-21z"/>
    <path d="M471 190l52-26 72 4 51 18 34 36-8 34 19 21-9 48-47 25-10 54-37 18-51-6-26-28-52-10-42-45 4-39 36-19-8-39 22-34z"/>
    <path d="M648 477l38-12 32 9 17 32-8 47-27 28-22 54-37 15-34-37 8-35-20-28 12-43 41-30z"/>
    <path d="M788 178l92-28 80 15 55 35 58 6 26 30 52 15 5 41-43 15-20 43-49 37-14 56-50 32-77-10-48 18-36-42 10-39-15-36-60-20-39-69 20-46z"/>
    <path d="M1135 472l47-16 41 25 12 41-16 36 24 42-22 34-51 9-44-28-18-50 6-54 21-39z"/>
    <path d="M1216 184l59-15 71 14 34 24-4 28-42 15-26 30-49 16-45-11-24-36 26-19z"/>
    <path d="M1290 377l46-9 34 27-13 34-34 24-44-19-8-35z"/>
    <path d="M930 567l26-10 22 12 4 27-22 15-27-6-10-18z"/>
  </g>
</svg>
