<?xml version="1.0" encoding="UTF-8"?>
<svg id="_x2014_ÎÓÈ_x5F_1" xmlns="http://www.w3.org/2000/svg" version="1.1" viewBox="0 0 4000 4000">
  <!-- Generator: Adobe Illustrator 29.1.0, SVG Export Plug-In . SVG Version: 2.1.0 Build 142)  -->
  <defs>
    <style>
      .st0 {
        fill: red;
      }
    </style>
  </defs>
  <g>
    <path class="st0" d="M2093.2,2006.7c-.2-3,.8-7.3-.9-8.8-6.6-6.2-6.9-13.6-6.5-21.6,0-1.7-1.6-3.5-2.5-5.3-6.4.4-6.1,6.9-9.1,10.3-4,4.5-6.9,9.7-7.2,16.1h.9c-2.9.6-6.6.4-8.7,2.1-5.4,4.4-10.1,9.7-14.2,13.9,1.1,6.4,3.7,11.9,2.5,16.3-3.4,12.7-8.8,24.7-11.2,37.8,0,.6-1.7,1.6-2.4,1.4-1.8-.5-4.8-1.5-4.9-2.4-.2-7.1-1.1-14.2,2.1-21.1,2.4-5.4,3.4-11.7-1.5-18.2-12.8,5.9-23.5,15.2-35.2,22.8-6.2,4-9.4,10.7-11.9,17.5-2.6,7-6.8,12.6-13.7,15.7-5.8,2.6-10.4,6.7-13.5,12-12.9,22.6-33,38.9-50.3,57.5-9.1,9.8-18.6,18.5-23.1,31.8-3,8.9-9.4,16-18.2,19.9-7.8,3.5-13.2,9.5-18.3,15.9-1.9,2.4-3.8,5.5-6.4,6.4-13.4,4.3-18.5,15.7-22.3,27.3-2.5,7.5-7,12.2-12.9,16.4-5.8,4.1-7.8,11.3-4.3,16.3,5.3,7.7,4.5,13.5-.8,19.3-6.8,7.4-9.6,18.4-20.2,22.3-2.3-1.5-4.6-3-7.2-4.7-2,2-4.6,3.7-6,6.2-2.8,4.8-6,7.7-12.3,6.7-7.5-1.2-11.7,2.3-11.8,10.2,0,3.3-1.3,6-4.8,6.7-3.1.7-6.7,1.6-6.3,5.1.9,8.1-2.4,13.9-8,18.9-3.1,2.7-6,5.9-5.4,10.4,1.9,14.3-7.6,22.4-15.9,31.1-.6.6-2.2,1-2.9.6-1.5-.8-3.9-2.2-4-3.4-.2-3,.5-6.1,1.1-9.1,1.1-5.4-.7-9.8-3.5-14.5-4.1-6.9-1.3-11,7-11.6,2-.2,4.2.9,6.1.7,10.6-1.3,14.5-10.2,9.3-20.6-2.3-4.5-10.5-6-12.9-1.8-9.8,17.2-24.4,29.6-38.9,42.5-7.5,6.6-12.5,16-18.3,24.4-.6.8.9,4.1,2.1,4.8,1.4.7,4.2.3,5.4-.7,2.8-2.6,4.9-6,7.4-8.9.3-.3,2,0,2.7.6s1.3,1.8,1.3,2.8-.4,2.1-1,2.8c-11.4,11.2-16.1,25.5-18.3,41.2,9.4-.6,9.6-11.1,15.7-15.3,1.1-.7,3.5.2,5.1.8.6.2,1.2,1.8,1,2.6-.5,2-1.2,3.9-2.1,5.7-2.8,5.5-5.5,11-8.7,16.2-3.4,5.6-3.9,11.1-2.6,17.7.7,3.5-1.5,7.9-3.4,11.3-1.3,2.4-4.6,5.6-6.5,5.2-14.6-2.7-23.2,5.2-31.2,15.3-3.8,4.8-8.9,8.6-12.5,13.5-7.3,9.8-10,20.1-.5,30.9.7.8,1.1,1.8,1.5,2.8,1,2.4-1.4,7.9-3.4,7.3-1.4-.4-2.6-2.1-3.6-3.5-1.1-1.5-2.1-4.8-2.8-4.7-2.9.4-6.3,1-8.2,2.8-4,3.8-4.9,8.9-1.7,14,2.2,3.4,4.9,6.6,7.2,9.7,11-2.9,14.1-12.7,19.4-19.6,6.1-7.9,13.4-12.2,22.9-15.1,1.6-6.7,3.2-13.6,4.8-20.4h1.9l-1.9.9c1.3-3.8,2.2-7.8,4.2-11.3,1.6-2.9,5.3-3.3,7.9-1.2,4.1,3.3,7.2,7.6,8.6,15.4-5.2,12-16.6,23.6-16.8,41,8.8-3,7.8-13.1,13.6-17.4,5.9-4.4,9.6-10.4,13-16.8,4.3-8.1,9.5-15.6,14.5-23.3.4-.6,2.6-.8,2.9-.5,1,1.6,2.7,3.8,2.2,5.1-1.7,4.6-4.2,9-6.4,13.3,1.5,1.8,2.6,3.7,4.2,4.8,2,1.4,3.4.2,3.7-2.5.5-3.5,2.8-6.6,5.9-4.5,8.8,5.8,10.8-.2,13.3-6.2-2.3-1.8-4.6-3.5-6.8-5.1-2.5-7.4-1-14.4,1-21.4l-.7.2c5.9,4.1,11.8,8.2,17.1,11.8,2-.6,3-.7,3.8-1.2,9.6-6.3,8.8-20.6,20-26,10.4-5,16.8-14.5,23.4-23.6,1.1-1.5,3.6-1.8,5.2-3,6.1-4.4,6.1-4.5,11-13.6,4,1.4-1.4-5.7-.9-1.5,0,0-1.9.4-2.9.5-2.6.3-5-1.2-4.1-3.4,3.1-7.4,5.3-16,10.6-21.5,9.9-10.2,13.7-24.8,25.4-33.4,4.4,1.8,1.5,4.4,1,6.8-.9,4.5.3,5.6,4.3,6.1,4.4.5,8.7,0,11.2-3.3,6-8,11.6-16.5,16.9-25,1.6-2.5,1.4-6.5-2.1-7.9-2.6-1.1-6.6-1.8-8.6-.5-4.1,2.7-7.2,6.8-10.4,10-4.8-2-4.9-5.3-3.3-7.8,8.1-12.9,21.8-21.5,37.2-21,9.3.3,15.8-2.4,21.7-8.6,4.1-4.4,8.5-8.6,13.1-12.5.7-.6,4.2.7,5,2,3.8,5.7,1.9,13.5-4.3,14.8-6.7,1.4-10.9,3.5-11.9,11.2-1,7.8-13.3,5.9-14.1,14.6-10.9,14.7-20.6,30.3-33.8,43.2-5.6,5.5-7,12.3-3,19.7v-1c.3,3.2,2,5,5.3,5.2h-1c1.7,5.3,2.5,10.3-5.1,11.4-4.6.7-7.9,3.6-7.9,7.9.2,18.2-9.5,30.4-22.3,41.3-6.8,5.9-12.9,12.7-19.5,19.3-6.4-7.7,5.4-9.1,3.7-14.6-1.2-1.6-2.8-1.5-4.7.4-4.9,5.1-9.7,10.3-14.8,15.2-2.9,2.8-6.3,5-8.9,7-8.7,1.2-17.6-2.7-23.9,4.7-1,1.2-.7,3.7-.8,5.6,0,.3,1.5,1.1,2.1.9,1.9-.5,3.7-1.9,5.6-2,1.5-.1,3.3.9,4.7,1.7.4.2.3,2.1-.2,2.8-4.5,6.8-8.8,13.3-18.2,14.6-11.1,1.4-14.6,9.7-15.2,19.8v-.8c-2.5,1.6-5.4,2.9-7.4,5-1.2,1.2-.7,3.9-1.3,5.8-4.7,15.9-7.9,18.1-25.7,18.5.3,2,.3,4,.9,5.9,2.2,6.6,1.3,13.1-4.6,16.4-18.9,10.4-30.3,26.8-37.6,46.5-4.4,11.9-14.6,19.5-20.3,29.9-6.4,1.7-12.9,2.1-17.7,5-6.1,3.7-10.2,9.9-11.4,17.5-3.1,1.4-7.6.7-8.1,7.3,3.3-3.3,5.7-5.7,8.1-8.1-2.8,17.6-15.4,25-30.8,29.6-1.4,4.9-2.8,9.8-4.4,15.6-14.2,8.9-26,21.1-37.5,34.2-20.7,23.7-43.3,45.8-65.2,68.4-12.8,13.1-25.8,26.1-38.8,39-23.1,23-46.2,46-69.6,68.7-5.1,4.9-11.2,8.8-16.9,13.1-12.2,9.3-24.7,18.8-33.1,31.6-5.3,8.1-11.9,14.5-19.6,18.9-19.8,11.3-34.2,28.2-49.3,44.4-4.9,5.2-9.9,10.3-15.2,15.1-13.9,12.5-14,12.4-35.9,12.2-19,15.4-37.7,30.8-54.7,48.5-9.7,10.1-20.8,19.1-31.3,28.5-9.7,8.7-21.6,15.1-32.8,22-8.8,5.4-16.2,12.1-23.2,19.4-17.6,18.4-36.5,35.2-58.1,49.1-10.9,7-20,17-29.2,26.4-8.1,8.1-17.3,13.9-28.6,18.8-7.2-5.6-6.5-18.3-17.6-20.1-1.8.6-4.1.6-5.5,1.8-12.3,10.8-25.1,21.1-36.3,32.9-11.3,11.9-24,22.1-35.5,33.6-15.1,15.1-32.4,27.6-47,43.4-13.7,14.8-30,27.2-45.7,41.1-3.9-2.5-7.5-4.5-10.7-7.1-6.1-4.9-7.2-9.7-4.4-16.3,2.5-5.6,5.5-6.8,15-5.7,1,.1,2,0,3.1-.1,5.1-3.4,9.9-7.1,12.6-13.4-1.4-9.8-11.7-17.3-9.3-28.6,3.2-7,10.5-9.1,16.3-13.1,1.1,6.6,2.1,13.3,3.2,20.1,4.6-.9,4.8-4.6,4.9-8.6.2-5.9-3.2-8.9-8.3-10.7,0-1,0-2.3.4-3,13.4-16.6,24.1-34.4,27.2-56.2.4-2.7,2.9-5.1,4.2-7.7,4-7.6,5.3-8,14.4-4.1,2.7,1.2,5.5,2.4,8.4,2.8.9.1,3.1-2.7,3-4-.8-6.5-4.4-11.6-10.2-14.5-2.4-1.2-6-1.1-8.6-.3-4.6,1.3-7.2,7.4-13.2,5.8,6.5-11.4,16.2-20.2,29.1-26.4l.5,1-1.1-1.2c1.8-1.6,3.7-3.2,5.5-4.9,2.2,1.6,4.2,3.7,6.7,4.8,2.1,1,3.6-.5,3.4-2.7,0-.6-1.3-1.7-2-1.7-2.7,0-5.4.3-8.1.5-.5-7.8,2.1-13.9,8.2-18.9,3.9-3.1,7.3-6.8,10.5-10.7.6-.7-.8-3.4-1.6-5-.2-.3-2.4-.3-2.9.3-17.4,18.5-34.7,37-52,55.6-9,9.7-18.2,19.2-24.2,31.4-4.6,9.4-12.9,15.5-22.6,19.4-1.8-2.2-3.2-5.6-5.4-6.5-4.9-2-5.9-5-5.1-9.5.2-1,0-2.2.6-3,9.2-14.6,16.1-30.4,21.9-46.7,9.7-4.6,0-13.2,3.4-19.1,7.1-.6,12.9-6.2,20.1-4.4,6.8-4.4,2.8-12.1,6.1-17,3.4-5,7.3-9.7,11.4-14.2,5.2-5.7,5.4-13,6.5-20,1.3-7.9,1.3-16.2,3.4-23.9,2.2-7.8,6.3-15,9.6-22.5-2.3-5.5-6.7-7-13.4-6.6,0,3.8.5,7.8-.3,11.6-1.5,7.8-5.7,10.5-15.7,9.2-5.2-.7-7.6.8-8.5,5.5-.5,3-.7,6-1,8.5-9.4,9.9-23.1,15-26.9,29.2-11.3,10-22.4,20.2-34.1,29.8-1.7,1.4-6,1.3-7.1-2.1,9.1-13.7,18.1-27.1,27-40.5,2.2-3.3,3.7-7.4,6.7-9.7,4.4-3.4,7.2-7.3,7.4-12.6.7-14.2,7.2-25.4,16.4-35.5,3.4-3.8,6.5-7.9,9.3-12.1,1.6-2.5,3.8-5.9,3.1-8.3-3.1-11.4,3.9-19.6,6.9-29.2,3.7-11.7,6.4-23.7,9.9-35.4,1.9-6.4,1.5-12.6-2.5-17.7-4.9-6.1-.8-8.5,2.4-12.7,2.8-3.6,2-4.3-4.2-16.6-6.6-3-13.1,7.6-19.8-.5,0-20,19-30.8,23.3-48.9-6.7-1.9-12.4-.3-15.6,5.7-2.8,5.3-4.4,11.4-7,18.5h-22.2c5.2-4.1,8.6-6.2,11.2-8.9,1.1-1.1,1.3-4,.6-5.5-.5-1.1-4-2-4.9-1.4-6.5,4.8-12.6,10.1-18.4,14.8-2.4,6.6,3.8,15.2-6.5,18.7s-15.4,13.1-21.2,21.3c-1.5,2-1.8,5.9-.9,8.4,1.7,4.8.4,8.6-2.9,10.8-9.5,6.5-14.3,16.7-21.3,25.1.3,7.1,6.1,10.4,9.6,15.3,3.7,5,6.4,10.7,9.3,15.8-1.3,6-6.8,7.6-10.1,11.1l-1.5-.7,1.5-.2c4.1,3.2,8.2,6.4,12.9,10,1.9,13.6,3.8,27.6,5.6,40.8-3.4,8.9-12.1,7.7-17.9,11.3-.8-.4-1.5-1.1-2.3-1.2-.4,0-1.4,1.1-1.4,1.2,1.1,1.6,2.4,1.3,3.7-.7-1.6,4.8-2.5,10-5,14.3-5.9,10.3-17.2,11.5-25.6,2.9-2.8-2.9-4.6-7-7.7-9.4-3-2.4-6.2-5.5-11.2-4.5,1.1,9.3-1.2,17.6-8.4,23.9-1.5,1.3-2.6,3.1-3.9,4.6-8.2,10-20.2,16-26.3,28.8-5.1,10.7-14.8,19.1-21.9,28.9-10.1,13.9-21.4,26.4-36.3,35.7-3.2-2.5-6.7-4.7-9.4-7.6-.9-1-.3-3.7,0-5.5.1-.6,1.7-1.4,2.5-1.2,2,.4,4,1.1,5.9,1.9,7.6,3.1,13-2,11.1-8.5-1.7-5.8-3-11.7-4.5-17.5,2.8-2.4,5.7-4.6,8.2-7.2,2.8-2.9,3-6.5.9-10.1l.9-1.4v1.4c-5.6,4.5-8.9,10.1-9.3,17.4-11.7,2.1-18.6,11-26.6,18.4-8.7,8.1-17.2,16.6-26.5,24.1-4.5,3.6-10.3,5-16.9,1.7-5.3-2.6-11.4-4-17.3-4.9-2.5-.4-5.4,2-8.1,3.2l.8.2c-.4-2-.9-4-1.2-6-1-5.4-.6-10.6,5.1-12.8,6.1-2.4,9.7-6.2,12.4-12.2,3.3-7.3,9.1-13.6,11.7-21.1,3.1-9.1,10.7-11.2,18.4-14.9,3-6.9,6.1-14.2,9-21.1-2-3.4-3.5-6.1-5-8.8v.9c.8-8.5-.3-17.2,5.3-24.8,1.8-2.4.2-7.3,0-11,10.7-2.9,18-11.1,22-24.7-10.8,5.1-16.3,14.7-21.2,24.9-4.2,4.5-7.1,11-15.2,9.3v.8c-3.7-16.8.7-31.3,10.7-44.4,4.2-5.4,9.2-10.5,6.4-18.5l-.2.4c4.6-8.8,14.5-10.9,21.5-16.7,3-2.5,5.4-5.8,7.4-9.2.6-1-.9-3.4-1.7-5,0-.3-2-.2-2.6.3-2.4,1.8-4.4,4.3-7,5.7-1.2.6-4.8-.6-5-1.5-2.1-7.7-6.6-16.2,2.9-22,9.6-5.9,11-16.5,15.1-25.5,1-2.2-1.1-5.9-1.6-8.9-1.8-9.7,2.3-14.5,12.8-15,8.5-.4,10.7-3.5,7.3-10.7-1.3-2.7-3.6-5-5.4-7.5-.5-.8-1.3-2.1-1-2.5.9-1.6,2.2-3.9,3.6-4.1,2.9-.3,6.6-.4,8.9,1.2,5.1,3.5,9.4,8.2,14.4,11.9,1.3,1,4.2.9,5.7,0,1.4-.8,2.5-3.1,2.6-4.9,0-1.8-.7-4.2-1.9-5.5-5.4-6-1.5-8.8,3.1-12.1.7-.5-.2-3.3-.3-5.1-1,0-2,0-2.9.2-2.7.9-5.3,1.9-8.2,2.9-.2-2.8-1.1-5-.4-6.5,8.5-18.3,10.3-39.4,22.8-55.8h-.9c3.6,1.7,8.4,2.4,10.6,5.2,3.8,4.9,7.8,8.9,13.6,11.1,1.1-10.1.7-11.4-6.4-23.8v.7c1.3-4.9,4.4-8.4,8.4-11.3,3.4,3.1,6.7,6.2,10.1,9.2-.2.8-.4,1.5-.6,2.3,0-.8-.2-1.6-.3-2.3,1.3-4.4,2.5-8.8,3.8-13.2l1.3.3-1.3.6c-5.8-2.9-9.1,1.6-13,4.2,0-9-4.7-18.1,0-27,3.3,3.7,5.8,8.5,14.6,7-5.5-7.7,3.6-13.4,1.1-21.4-4.2-3.2-8.2-1.7-10.3,1.7-2.6,4.1-3.6,9.1-5.3,13.8-1.9-2.5-3.8-5-5.6-7.5.5-9.7,11.6-14.9,9.6-25.3v.9c1.5-4.4,3-8.8,4.4-13.3l-.9.3c12.7,8.5,15.3,8.2,19.4-4.1,1.9-5.8,4.5-10.8,8.2-15.6,3.5-4.7,6-10.2,8.9-15.3,17-17.6,32.5-36.4,46.1-56.7.8.6,1.4,1.4,2.3,1.6.5.1,1.7-.9,1.7-1-.9-1.8-2.3-1.8-4,.2-5.6-4-11.3-5.3-16.5,0-5,5-8.8,11.2-14.3,15.5-10.9,8.5-15.5,20.3-20.1,32.1,2.1,3.3,3.8,5.9,5.5,8.5-2.6,1.6-5.6,4.9-7.8,4.4-10.8-2.7-17.3,4.3-24.8,9.2-1.7,1.1-3.3,2.4-4.9,3.6h1.2c-.2-8.4-7.4-9.6-13.1-12.5,1-10.1,6.9-16.7,14.6-22.2,2,.6,3.9,1.4,5.8,1.8,5,1.1,8.8-.8,9.4-4.6.7-4,1.7-8,1.4-12-.6-7.8,1.7-14.5,6.7-19.8,18.8-20.1,31.7-45,52.1-63.7,13.9-23.8,35.8-41.1,50.3-64.8,11-18,26.9-33,40.6-49.4,4.6-5.4,10-10.4,13.4-16.5,5.3-9.3,14.5-13.9,21.5-20.9,7-6.9,10.8-16.9,17.1-24.7,3.7-4.5,9.4-7.4,14.2-11,6.4,6.3,11.9,12.7,20.6,14.2,2.3-1.5,4.7-2.9,6.9-4.4,2.4-1.6,2.4-2.7-.8-3.5-2,2.7-4.1,5.7-6.3,8.6,0-2.1-.8-4.4,0-6.1,3.6-8.4-2.1-12.4-8.1-16.7,2.6-5.2,5.7-10.3,7.8-15.7,1.8-4.7,2.1-10.1,8.4-13.4,5.6,2.4,12,5.1,18.2,7.7,10.7-9.6,2.7-22.5,6.8-32.4,4.6-4.7,9.5-1.9,14.4-1,9.7,1.7,17.4-2.6,22.4-11.7,2.1-3.9-.5-9.1-4.9-9.2-3,0-5.9.9-8.8,1.4.8-10.2,7.6-21.3,20.3-33.3,3.8,2,1,5.4,2,7.9.6,1.6,2.5,3.4,4.1,3.7,1.7.3,4.3-.4,5.5-1.6,6.4-6.3,15-5.7,23.3-7.3,8.4-22.6,21.1-43.2,30.5-65.4,4-9.6,12-16.3,19.8-22.8,7.9,3.9,15.5,5.4,22.4-1.4-4.3-9.5-3.3-16.7,3-21.8l10.5,6c11.4-7.1,21-15.9,29-26.7,5.4-7.3,11.4-14.3,17.9-20.8s13.9-14.9,10.7-27c-.6-2.5,2.4-5.6,5.9-5.6s10,4.2,9.8,6.6c-.2,1.9-.3,4.2-1.3,5.6-2.5,3.2-5.6,5.9-8.4,8.9-3.5,3.7-7.5,7.1-10.1,11.4-5.9,9.5-9.7,20.6-16.8,29-6.5,7.7-13.1,15.1-18.2,22.6.9,3.7,3,5,5,3.5,4.8-3.7,9.3-7.9,13.7-12.1,7.3-7.1,14.4-14.3,20.8-20.7,7.1-.1,13.5,5.8,17.9-2,3.7-6.5,9.5-10.4,16.6-12.7,1.7-.5,4.3-2.7,4.2-3.9-1-11.3,10.9-13.6,14.4-22,3.6-8.3,10.4-15,15.2-22.8,2.1-3.4,3.6-7.7,3.6-11.6,0-11.1,6.3-18.7,12-27.4,11.8-18,25.3-34.1,40.8-49,10.8-10.4,18.9-23.6,27.8-35.8.7-.9-.7-4.1-1.9-5.4-1.2-1.2-3.7-2-5.4-1.8-1.9.2-4.2,1.4-5.2,2.9-9.2,13.4-20.8,24.9-29.1,39.3-13.4,23.2-33.1,41.3-52.6,59.3-6,5.5-12.4,10.5-18.9,16-4.6-4.4.6-5.9,2.2-8.3,3.1-4.5,2.5-9.5,2.2-14.7-.5-9.3,0-9.3,12.3-11.9,4.9-1,6-2.6,5.6-8.8,0-2-.8-4-1.6-7.6,8.2-12.4,21.4-23.4,20.7-38.9,10-7.2,17.3-12.7,24.7-17.8,1.5-1,4.6-2,5.6-1.2,7.1,5.8,11.2.8,15.5-3.5,4.3-4.4,8.4-8.9,12.6-13.4,4.8-5.2,9.6-10.5,14.4-15.7,5.3-5.7,5.1-7.1-3.5-14.1,0-7.3,7.4-8.5,10.9-13.2,4.5,1.7,9.4,4.8,13.7.2,6.2-6.6,12-13.6,17.8-20.2-.6-2.5-.9-4.5-1.6-6.4-1.4-3.7.2-6,3.4-7,1.8-.6,4,.2,6.1,0,7.2-.3,11-4.3,12.2-11.2.9-5,2.3-9.9,3.5-14.8h1.5l-1.7.2c-2.1-9.1,2.6-13.3,10.6-15.1,5.1,12.8,3,24.1-5.4,34.3-3.9,4.7-6.9,10.4-11.5,14.3-18.7,16.1-30.6,38.1-48.2,55.2-2.8,2.7-4.2,6.8-6.1,9.9,2.5,5.3,5.7,6.5,10.2,4.4,4.8-2.3,9-5.9,10.2-10.9,2-8.8,11.2-11.8,14.1-19.6,20.5-16.9,35.9-38.6,54.2-57.7,2.1-2.2,4.8-4.2,6.1-6.8,9.2-18.8,25.2-31.8,38.8-46.9,14.3-15.8,25.8-33.8,37.9-51.5-7.9,5.3-15.8,10.7-23.5,15.9-7.9-5.7-3.8-17-14.9-19.8,7.4-9.3,12.9-16.4,18.6-23.3,2.4-2.9,3.2-2.9,17.1-4.7,2.7,2.9,1,5.4-.9,7.5-3.3,3.8-6.9,7.4-10.3,11.2-.6.6-.5,1.9-.8,3.1,1.6-.3,3.6,0,4.4-.8,8.3-8.9,16.4-18,24.9-27.4-1.9-4.4-3.9-8.9-6.3-14.4,2.5-3.7,4.5-8.9,8.3-11.8,14.7-11.3,27.9-23.5,36.5-40.4,1.7-3.2,6.4-4.9,11.4-1.1-4.6,5.1-9.4,9.9-13.7,15.2-3.8,4.7-6.9,10-11.3,16.6,9.4-2.3,13.2-11.4,22.1-12.2,9.1,6.9,16.7,2.5,23.5-4.7,1.1-1.1,1.4-4,.8-5.5s-2.9-2.6-4.6-3.2c-1.8-.6-3.9-.5-6-.7,1.5-5.8,4.3-11.1.7-17.6-.9-1.7,2.6-5.4,6.4-3.2,4.9,2.7,7.7,0,9.9-3.5,2.7-4.5,4-9.3,2.8-14.7-.6-2.8-.7-5.8-1-8,6.6-8.3,16.4-3.7,23.8-7.5,5.9-5.3,11.7-11,4.4-19.7,3.6-5,7.7-9.6,10.7-14.8,3.6-6.4,7.5-12.1,14-15.7,4.6-2.6,6.6-7.4,9.4-11.7,9-13.7,18.2-27.5,36.4-30.5l.9-.9-1.4,1.4c4.3-11.2,14.2-18.2,29.7-21.1,8.3-9.1,17.3-18.8,26.3-28.7-.4-5.4-.8-10.4-1.4-16.8,3.7-3.7,7.6-8.3,12.3-12.1,3.2-2.6,6.8-3,11.2-.4,3.4,1.9,8.9-1.9,9.2-4.9s.5-2.1.2-3.1c-4-16,4.6-25.2,17.5-32.8,3.3,1.7,6.9,3.7,10.8,5.7,1.5-.6,3.8-.7,5.1-2,28-26.8,56.3-53.2,83.6-80.7,44.2-44.6,87.6-89.9,130.5-135.7-30.7,28-59,58.5-93.2,87.8,3.4-11,5.1-18.8,8.3-26,3.3-7.5,8.2-14.1,16-18,3.6-1.8,8.1-3.2,10.4-6.2,14.3-19,35.7-30.3,51.2-48,8.6-9.8,19.4-17.6,29.9-24.8,6.6,3.3,2.6,12.8,11.1,14.1,4.4.7,9.6,1.7,11.2-1.9,4.8-11.2,19.1-15.5,19.7-29.7,0-3.2,4.7-6.1,7.4-9.1,4.7-5.3,9.5-10.5,14.4-15.7,2-2.1,4-4.4,6.5-5.8,3.5-2,9.1-2.3,10.8-5.2,4.9-8.5,15.8-9.6,20.6-17.6,3.1-5.2,7.5-4.9,12.9-5.3,8.6-.7,13.8-7.6,18.4-14.3-.4-6.2-5.9-7.8-8.2-10.9-4.7-.9-6.8,1.1-9.1,3.3-13.3,12.4-26.7,24.8-40.3,36.9-.6.6-3.5-1-5.1-1.9-.5-.3-.4-1.8-.3-2.8,0-1,.2-2.2.9-2.8,16-15.6,32.5-30.7,51.3-43.1,3.6-2.4,7.5-2,11.7-2.2,8.8-.4,8.7-.9,10.3-13.8.4-2.9.9-6.2,2.5-8.5,4.5-6.8,9.6-13.1,16.9-16.7,7.2-1.8,7.8,6,12.4,7.9,4.8.5,7.2-2.9,9.7-6.2,2-2.7,2.6-5.3-1.3-7.1-4.9-2.3-6.3-6.2-2.3-9.4,5.1-4.1,8.5-8,8-15.2-.3-4.9,4.1-6.4,8.5-6.6h-.9c8.5-10.2,21.1-15.4,29.7-26,8.2-10,20.2-16.7,29.3-26.5,8.9-9.7,19.9-17.6,30.3-25.8,18.4-14.6,36.6-29.4,53.2-46.1,5.7-5.8,11.8-11,17.1-17.3,5.2-6.2,12-11.1,17.3-17.2,8-9.3,21-11.2,28.4-22.4,7.1-10.6,19.4-17.6,29.4-26.2,9.2-8,18.6-15.9,27.6-24.2,6.7-6.2,13.2-12.7,19.4-19.4,2-2.1,2.9-5.3,4-8.1s1.1-6.7,3-8.6c12.9-12.8,23.6-29.1,41.2-35.4,10.7-3.9,17.3-10,22.7-18.8.5-.8,1.7-1.1,2.5-1.6,2.8.8,5.5,1.6,8.3,2.4,11.5-7.3,18.4-18.8,25.1-28.8,8.2-2.3,15.2-3.8,21.9-6.1,8.1-2.8,14.6-7.7,16.1-16.9,1.1-6.4,4.7-11,8.8-15.8,18.1-21.1,39.1-38.9,62.4-53.9,8.6-5.5,17.3-10.7,24.6-18.1,4.2-4.3,10-6.9,15-10.4s10.3-6.7,14.8-10.7c14.6-13,30.8-23.5,47.7-33.1,16-9.1,31.5-18.6,45.9-30.4,25.4-20.9,53.7-37.2,88.6-42.9,2.7,1.4,6.4,3.2,9.9,5.4,4.7,2.9,9.7,3.8,14.9,2.8,5-.9,9.9-3,15-3.6,9-1.1,17.5-1.9,27.2,1.9,10.2,4.1,22.3,3.4,33.6,4.7,4.1.5,8.8-.7,12.1,1.1,16.1,8.7,34.1,8.6,51.1,13.3,8.3,2.3,15.4,5.8,22.2,11,6.4,4.8,10.1,10.2,9.8,18.4-.1,2.8,1.6,5.8,2.7,9.3,7.1,1.7,14,3.3,20.4,4.8,6.7,7.4,12,15.7,19.4,20.8,16,11.1,27,25.5,34.9,42.8,1.7,3.7,3.6,7.3,5.6,11.4-2.9,2.9-5.9,5.6-8.5,8.6-5.9,6.6-8.2,13.8-3.2,22.5,2,3.5,2.1,8.2,4.3,11.5,2.8,4.2,6.5,8.3,12.4,8.4,4.1,0,8.2,0,12.3.4,4.4.4,5.8,5.5,3.5,9.5-3.5,6.1-11.9,8.4-12.6,16.4,6.4,8.8,17.3,5.1,26.5,10.6.6,4.3,1.3,9.3,2,14.5,8.4,11.7,20.5,20.8,27.8,35.8-.5,3.7-.8,8.8-1.9,13.8-2.7,13-3.5,27-9,38.7-9.9,21.3-16,44.3-29.1,64.2-3.9,5.9-7.1,12.7-8.5,19.5-3.7,17.7-13.5,32.1-23.2,46.5s-20.8,27.8-31.2,41.7c-3.7,4.9-7.6,9.7-10.8,14.9-19.1,31.7-43.6,59.1-66.9,87.5-30.5,37.1-61.3,74-92.9,110.1-20.8,23.8-43.4,46.1-65,69.2-20.2,21.6-40.9,42.8-60.9,64.5-19.4,21-40.2,40.6-60.9,61.2-3.6-.6-7.5-1.5-11.5-1.8-5.8-.5-10.2,2.4-8.7,5.6,1.1,2.4,4.4,3.9,7.3,6.2.5,5-4.2,8.2-7.4,11.6-24.4,26.1-48.6,52.6-74,77.8-10.8,10.8-20.7,22.4-31.8,33-11.6,11.1-22.2,23.7-33.6,35.3-10.7,11-21.5,21.9-31.8,33.2-11.7,12.7-26.1,22.7-36,37.2-2.2,3.2-6.1,5.8-9.7,7.1-15.3,5.7-24.3,17.8-33.1,30.5-9.2,13.4-18.9,26.7-32.7,35.8-7.3,4.9-9,13.4-14.9,19.1-5.4,5.2-11,9.2-18.7,9.1-1.6,0-3.1-1.6-5.6-2.9,16.7-18,33.2-35.8,52-56.1-6.8,2.2-10.2,4.2-13.6,4.2s-4.7-2.9-7-4.5c-8.1,4-13,9.1-8.8,19.4,1.7,4.2-2,6.7-7.6,6.1-2-.2-3.9-.9-6.1-1.4-3.3,9.2-3,20.2-13,26.2-9.5,5-22.6-.5-34.3,13.4-5.9,17.8-20.1,35.9-40.9,48.5-2.6,1.6-5.6,3.5-6.8,6-10.5,22.6-31.9,37.2-42.5,59.6,11.4-3.6,19.3-8.7,25-16.2,3.1-4,5.7-8.6,9.3-12.1,4-3.9,9-4.3,13.9-.5.3,5.7-3.1,9.6-6.7,13.2-7.7,8-17.9,13.8-21.5,25.4-.6,1.8-2.2,3.8-3.9,4.6-14.9,7.3-22.7,19.7-26.1,35.7-.8,3.6-4.6,6.6-7.3,9.7-9.4,10.8-18.8,21.6-28.3,32.3-2.7,3-5.3,6.5-8.8,8.5-11.8,6.7-19.8,16.7-28.1,27.3-15,19.2-32.1,36.7-46.6,56.4-.6.8-1.6,1.3-2.5,1.6-.9.3-2.2.8-3,.4-1.7-.9-4.4-2.2-4.5-3.4-.7-10.4-1-21,8-28.3,6.5-5.2,10.8-11.6,14.7-19.1,3.6-6.9,9.8-13.4,16.5-17.6,10.9-6.9,16.4-18,24-27.4,1-1.3.4-3.9.5-5.9-18.3,8.6-32,19.6-41.2,33.1-3.5,5-7.5,9.7-11.4,14.4-5.2,6.3-11.1,12.1-15.6,18.9-10.2,15.3-20.2,30.7-33.7,43.4-2,1.9-3.7,4.5-1.4,8.2,7.6-4.4,15.2-9,23-13.1,1.1-.6,4,.8,5,2.1,1.1,1.4,2.1,4.5,1.4,5.6-10,15.3-20.1,30.7-33.9,43-3.8,3.4-8.1,6.3-11.3,10.1-17.6,21.2-35,42.6-52.5,63.9-1.9,2.4-4,4.7-5.8,7.1-11.4,15.6-27.9,26.2-38.4,43.3-9.4,15.4-24,27.7-36.5,41.1-11.1,11.9-19.2,26.5-33.7,35.1-6.2,14.4-19.5,23.6-27.4,36.6-6,9.9-13.4,18.1-23,24.1-8.1,5.1-13,14.9-23.7,17-1.2-7,4.1-9.7,6.5-13.8,3.1-5.3,6.7-10.3,10-15.4,2.8-4.3,5.5-8.6,7.9-12.3-.7-7.6-8.8-4.9-12-10.6,13.4-17.1,22.8-37.6,40.3-52.4,7.6-6.5,12.9-15.8,14.1-26.6,2-17.9,10.5-30.4,28.4-35.6,3.8-1.1,5.6-6.5,4.1-10.4-2.2-5.6-4.8-11.1-7.1-16.3,2.9-3.9,5.4-1.5,8.2-.6,1.6.5,3.8,0,5.6-.7,2.9-1.1,5.6-2.2,8.7.8,1.2,7.7,2.8,15.8,3.5,24,.2,2.6-2.4,5.3-3.2,8.1-1.7,6.1.5,8.4,8.3,8.9,2,.1,4.1-.2,6.9-.4,1.1-2.3,3.2-4.8,3.4-7.5.5-6.6,2.6-12.1,8-15.8,10.3-7.1,17.8-16.7,25.1-26.6,2.3-3.1,4.1-6.9,1.9-11.8-15.8,8.5-18.9,29.4-35.8,36.5-1.2-1.8-3.4-4.1-3-4.8,4-7.1,7.7-14.6,13-20.6,6.4-7.2,9.3-15.8,12.3-24.5,2.3-6.7,4.2-13.6,6.9-20.2,4-10,4.4-19.1-.6-29.7-3.2-6.8-.4-15.9-5.7-23.4-1.7-2.5.5-7.7,1-11.7v1c7.1-8.1,14.4-16.2,21.5-24.4,3.3-3.8,4.9-8.5,4.6-13.7v.9l.8-.7ZM682.4,2924.5c2.4-1.8,4.9-3.5,7.3-5.3,2.3,1.8,4.7,3.7,7.1,5.4.8.6,1.7,1.2,2.6,1.2s1.5-.8,2.2-1.3c-1-1.3-1.9-3.5-3.2-3.8-2.7-.7-5.7-.5-8.6-.6-2.2,1.4-4.4,2.9-6.7,4.3l.5,1.7-1.3-1.6h.1ZM690.3,2999.8v-.9.9ZM2417.7,1699.3l1-1.2v1.3c-2.1,3-1.9,5.9.6,8.7-3.4,2.1-6.7,4.1-10.2,6.2-5.8-5-11-10-10.3-18.1.7-7.9,5.9-13.1,12-16.9,4.1-2.5,9.2-3.3,13.6-4.8,2.7-5.4,5.7-10.7,8.1-16.3,2.4-5.5,4.3-11.3,6.2-16.6,4.2-1.5,7.9-2.9,11.1-4,5.8-12.8,9.8-25.5,19.2-35.4,4.3-4.6.5-9.7-5.6-10.8-6-1.1-12.4-4.5-14,5.1-13.6,2.8-23.9,10.7-32.8,20.7-8.1,9.2-16.2,18.4-24.2,27.6-5.4,6.1-10.2,12.8-16.1,18.4-4.3,4.2-9.3,7.2-12,13.3-2.8,6.2-11.8,7.8-13.2,16.1-.7,4.2-5,5.9-9.1,7.1-9.1,2.6-15.4,9.5-22.3,15.6,1.3,7.2,3.6,14.2,3.5,21.2-.1,9.2-9.3,12.8-14.2,19.1-1.3,1.6-2.9,3.1-3.6,4.9-1.8,4.7-2.7,9.9-5,14.4-2.7,5.4-7,10-9.4,15.6-1.8,4.3-7.5,6.8-5.8,13.1,27.3-25.2,50.7-53.1,72.8-82.3,3.1-4.1,6.3-8,9.5-11.9,2.4-2.9,8.5-2.3,10.7,1.1,3.4,5.2,5.2,11.8,11.3,14.6,6.7,3.1,6.6,13.1,16.1,14.5,5.7-6.6,10.9-14,13.8-22.8.8-2.5-.6-5.8-1.1-8.8,1.7-3,2.1-6-.8-8.8h.2ZM1484,2689c-1.5.9-3.2,1.6-4.5,2.9-1.8,1.8-1.3,3.4,1.1,3.8.6.1,1.9-.8,2-1.4.4-1.7.3-3.6.4-5.4.2-2.2,3.4-4.2.4-6.6,0,0-1.9,1.3-1.7,1.7.5,1.7,1.5,3.3,2.3,5h0ZM2110.7,1989.9c-.4-3.3-.8-6.5-1.3-9.8,5.2-7.7,7.9-15.9,5.1-25.4-1-3.4-6-5.8-9.8-4.6-4.1,1.4-6.2,5.2-5.8,9.1.8,8.6,6.6,14.5,11.4,21,.4,3.3.8,6.5,1.2,9.8-1.9,1.3-4.7,1.9-3.6,5.2,0,0,1.8,0,1.9-.4.5-1.6.7-3.3,1-5h0ZM742.5,2910.8c-2.3-2-4.5-5.2-7-5.7-2.2-.4-5.2,2.1-7.1,4-.7.7,0,4.2,1,5,1.3,1,4,1.2,5.6.6,2.8-1.1,5.1-3.1,7.7-4.8,1.4,3.8,2.5,7.8,4.3,11.4.7,1.4,3.3,2.7,4.8,2.5,1.4-.2,3.3-2.2,3.6-3.7.3-1.7-.4-4.8-1.6-5.5-3.5-1.8-7.4-2.7-11.2-3.9h0ZM2266.9,1859.4c.1.6.2,1.3.3,1.9-.4-.6-.8-1.3-1.2-1.9,5.6-3,10.4-6.6,9.3-14-.3-1.7-1.3-3.6-2.5-5-1.6-1.7-6.1,1-6.8,4.1-1.1,5-2.1,10,.8,14.8h0ZM487.9,3255.1c2.6,1.7,5,3.7,7.8,5,1.7.8,4,.6,6,.6,3.8-.1,5.2-2.9,5.6-6,.2-1.7-.5-4.2-1.7-5.4-2.6-2.6-4.9-1.1-7.4,1-3,2.4-6.8,3.8-10.3,5.7v-.8h0ZM2555.5,1625.8l-1.6,1.4.7-1.3c2.3-5.9,6.6-9.3,12.4-12,8.3-3.8,8-4.4,7-15-7.6,8.3-16.2,15.3-18.6,26.8h.1ZM483,3279.4c-1.4-3.3-.6-8.5-7.2-8.1-2.3,5.2-4.8,10.6-7.1,16-1,2.4,1.5,6.7,4,7.1,3.5.6,5.5-1.2,6.5-4.5,1.2-3.8,2.6-7.5,3.8-11.3l1-.5-1.1,1.2h.1ZM702,2722.2c-1.4,2.1-2.9,4.3-4.3,6.4.7-.2,1.9-.3,2-.7.6-1.8,1-3.8,1.4-5.6,3.6-9,3.4-10.7-1.9-15.6-5.2-4.8-8.4-3.5-12.4,5.4,5,3.4,10.1,6.8,15.2,10.2h0ZM2084.9,2050.4c-1.9,5.1.4,5.8,4.7,4.5,1.8-.7,4.5-.9,5.3-2.3,3.9-6.6,5.8-13.8,4.5-22-8.1,2.4-11.9,8-14.9,14.2-.7,1.4.3,3.7.5,5.6h-.1ZM2170.2,1893.6c3.3-3.7,6.1-7.6,5.7-13.1-.3-4.4-4.2-7.7-8-6.1-4.7,1.9-9.4,4.4-9.9,9.8-.6,7.1,6.3,6.1,10.5,8,.9.4,1.8.9,2.7,1.4-8.7,8.8-21.5,5.1-31.9,9.2-1.1,3.1-2.8,5.8-3.1,8.8-.9,7.8,2.7,11.6,10.2,12.2,6.2.5,12.3,1.3,16.8,1.8,10.3-9.2,19.2-15.5,24-26.5,2.7-6.3,7.6-12.7,13.2-16.2,11.1-7,16.3-17.6,21.7-27.9-.7-14-2.5-27.5,8.6-44.7-17.1,16.8-30.4,28.1-33.9,47.9-1.7,9.6-6.5,19-11.4,27.9-3.7,6.8-9,7.3-15.2,7.7v-.2ZM2512.9,1553.8c-.2-3.7-.2-5.8-.4-7.8-.4-4.5-2.5-8.3-6.9-9.3-4.3-1-8.1,1.4-10.5,4.8-5.7,8.4-11.1,17-16.3,25.6-.9,1.6-1.1,4-.7,5.9.4,1.8,1.8,3.6,3.2,5,.5.5,2.1.4,3,0,2.8-1.1,6-2,8.1-3.9,6.7-6.2,13-12.8,20.5-20.3h0ZM2135.7,1946.2c-2.7,2.7-5.6,4.4-6.7,7-1.6,3.5-2.6,7.6-2.3,11.4.2,2.4,2.8,5,5,6.7.9.7,4.1-.3,5.3-1.5,8.8-8.4,13.3-19.7,19-30.1.6-1.1-.7-4.1-2-5-1.1-.8-3.8-.3-5,.6-4.8,3.6-9.3,7.6-13.2,11h-.1ZM2598.5,1572.4c1.5,2.5,2.3,4.1,3.4,5.3.4.4,2.3,0,2.7-.4,9.5-13.1,18.5-26.5,34.9-32.4,2.5-.9,4.4-4,6-6.5,4.3-6.7,8.2-13.5,13.9-22.9-24.7,17.6-39.9,40.5-60.8,57h0ZM2431.1,873.5c-4-1.5,2.2-3.1-1.8-2.6-2,.3-4.4-.4-6,.5-16.1,9.2-28,22.8-39,37.3-.3.4.2,2.3.6,2.4,1.7.5,4.6,1.4,5,.7,6.3-9.3,13.7-16.7,24.5-21.3,7.5-3.1,12.9-9.7,16.7-17.2v.2ZM508.6,3186.4c19.8-11.6,29.1-30,39.1-47.7.6-1.1-.5-4.3-1.8-5.3-1-.8-4.6,0-5.1.9-7.2,15.9-18,29.3-28.7,42.9-1.7,2.1-2.1,5.3-3.5,9.3h0ZM2281.4,1777.1c-10.7-1.1-11.5,7.2-17,10.1-10.9,5.6-10.4,7.1-4.4,21.7,10.9-10.5,18.1-21.1,21.4-31.8h0ZM1616.1,2404.6c14.1-2.1,25.1-12.3,32.9-30.8-.8-.3-1.7-.9-2.3-.7-14.1,6-16.2,23-30.6,31.6h0ZM800.9,2855.7c-3.6,3.6-7.1,7-10.5,10.7-.4.4.2,2.1.8,2.8.4.5,1.8.8,2.5.6,4.7-1.6,9.2-3.4,13.1-4.8,5.6,1,7.4,8.9,13.7,5.8,3.1-5,8.2-8.8,8.4-15.5-4.5,1.9-9,3.8-13.3,5.6-4.9-1.8-9.7-3.4-14.6-5.2h-.1ZM1195.3,2217.2c-11.2,12.4-22.4,24.8-33.6,37.3-.5.5-.4,2.6,0,2.8,1.4.6,3.8,1.6,4.3,1,3.2-3.7,5.2-9.6,9.2-11.5,11.7-5.6,16.6-16.5,20.1-29.6ZM2997.9,1159.3c-9.5,9.1-15.4,13.8-20.2,19.5-3.1,3.7-4.7,8.7-6.8,13.3-.3.7.5,2.6,1,2.7,1.7.4,4,.9,5.2,0,11-7.3,11.2-20.8,20.8-35.6ZM1976.2,2266.7c8.5-10.3,16.3-19.6,23.8-29.1.7-.9-.6-3.4-1.3-5,0-.2-2.3-.1-2.9.4-8.6,9.8-15.9,20.7-22.5,31.9-2.1,3.5,2.4-4.2,2.9,1.7h0ZM3101.3,628.3c4.8,1.4,9.6,3.2,14.5,4.1,2.9.5,6.2,0,9.1-.7,1.8-.5,3.7-2.1,4.6-3.7.7-1.4.6-4.6-.2-5.1-12.6-7.5-19.8-6-28,5.4h0ZM1653,2629.4c-12.3,10.2-25,19.4-33.1,33.8,12.3-10.7,25.5-19.8,33.1-33.8ZM2746.3,1321.7c-6.4,5.5-9,12.8-8,21.4,0,.8,1.2,1.9,2,2.3.9.4,2.6.4,3,0,4.2-5.6,8.3-11.2,12.1-17,1.7-2.6-.4-7.4-3-7.4s-3.9.6-6.1.9v-.2ZM756.9,2895c.5,5.7,3.9,8,7.3,10.2,4.1,2.7,7.9,2.3,10.8-.9,2.8-3.2,4.2-6.8,2.2-11-1.4-3.1-6.6-5.1-10.5-3.6-3.6,1.4-6.8,3.6-9.8,5.3ZM2962.4,1093.5c4.3-2.1,10.2,2.7,14.4-3.7-.5-3.1-.8-7.1-2.1-10.8-.4-1.1-3.8-2.5-5-2-9.3,4.3-15.5,11.6-18.4,21.5-.2.7.4,2.1,1.1,2.7,1.9,1.7,3.7,1.5,5-.4,1.7-2.4,3.3-4.9,4.9-7.4h.1ZM2719.6,1329.9c-7.5,5.3-13.1,9.2-18.5,13,3.3,9.5,5,10.5,9.8,8,7.1-3.7,10.7-9,8.7-21ZM1548.8,2606.4c-8.3,7-13.2,10.4-17.1,14.7-1.6,1.8-1.4,5.6-1.1,8.4,0,1.5,1.9,3.7,3.3,4.1,1.7.5,4.4.1,5.6-1,6-5.9,6.1-14.2,9.3-26.3h0ZM2645.5,664.9c7.2-3.1,13.2-5.4,18.9-8.3,1.1-.6,1.9-3.8,1.3-5-.6-1.2-3.4-2.1-5-1.7-7.6,1.5-9.3,9.3-15.2,15.1h0ZM959,3267.8c-5.7,4.9-13.3,6.8-18.8,12.3-.6.6-.8,2.5-.5,2.8,1.5,1.1,3.6,2.9,4.8,2.5,4.6-1.4,9.5-2.9,13.3-5.7,2.9-2.1,5-6.1,1.2-11.9h0ZM722.4,2957.1c-4.1-4.3-6.9-5-9.5-2.9-3.9,3.3-3.4,9.6,1,12.5,2.8,1.9,5.5,1,7.6-1.3,3-3.2,2.6-6.5.9-8.3ZM829.1,3220.7c.8,1.1,1.7,2.1,2.5,3.2,4.8-5.9,9.6-11.8,14.3-17.7.2-.3-.2-1.1-.4-1.9-5.5,5.5-10.9,10.9-16.4,16.4h0ZM3100.1,612.5c-10.3-1-15.9,6.6-22.8,11.8-.7.5-.8,1.8-1.2,2.7,1,0,2.2.2,3-.2,7.2-4.4,18.3-3.4,21-14.3ZM1245.4,2762.3c5.3-5.3,10.2-10.1,14.9-15.1.5-.5.5-1.9,0-2.5-1.2-1.8-4-2.1-4.5,0-1.7,6.9-10.4,9.2-10.6,17.6h0ZM2783.2,1277.5c.8-.5,2.1-1,2.2-1.7.6-3.9,1.2-7.9,1-11.9,0-1-3.1-2-5-2.6-.6-.2-2,.7-2.4,1.4-2.6,5-2.1,10.6,1.3,14.2.5.6,1.9.4,2.8.5h0ZM1689.9,1595.5c.8-2.5,1.7-4.3,1.7-6.2s-4.8-3.2-7.7-.5c-2,1.9-3.5,4.5-4.7,7-.2.5,2.6,3.4,3.5,3.2,2.7-.7,5.1-2.4,7.2-3.5ZM995,2389.9c7.7-4.2,12.8-6.7,17.5-9.8,1-.7,1.4-4.1.6-5-1-1.2-4.2-2.1-5.2-1.4-4.7,3.2-9.4,6.7-12.8,16.3h0ZM694.3,2964c-8,7.1-13.2,11.5-17.9,16.3-.9.9-.7,3.4-.4,5.1.4,2.2,5.8,1.5,7.2-1,3.2-5.6,6.2-11.3,11.1-20.4h0ZM2852.4,1322.6c8.4-.8,12.1-6.5,14.6-13.7-8.3,1.1-11.8,6.9-14.6,13.7ZM1215.5,2196.3c-.9,0-2.1-.4-2.8,0-3.5,2-5.8,4.9-5.3,9.3,0,.9.8,2.1,1.5,2.4,2.6,1.1,6.5-2,8.3-6.5.3-.8.2-2,0-2.8-.3-.9-1.1-1.6-1.6-2.4ZM1278.9,2729.5c.8-1.7,1.9-3.3,2.5-5.2.3-.8,0-2.4-.8-2.8-1.5-1.1-3.5-2.5-5-2.2-1.7.3-3.4,2.1-4.5,3.6-1.9,2.5-2.5,5.8,0,8.1,2.7,2.4,5.4.6,7.7-1.5h0ZM2126.9,2095.8c3-3,3.5-6.1,1-7.3-3.1-1.5-5.4,0-7.4,2.1-.6.7-1.6,1.6-1.6,2.4,0,1.8.5,3.6.7,5.4,1.7-.2,3.4-.3,5.1-.8.9-.2,1.5-1.2,2.2-1.9h0ZM2676.6,1376.1c4.8-4.5,9.4-7.5,11.6-12.8.3-.8-1.6-2.9-2.7-4.1-.5-.5-2.2-.5-2.6,0-3.8,4.1-8,8.2-6.2,17h-.1ZM783.7,2945.9c-3.5-2.5-9.2-1.6-9.7,2-.3,1.7.5,4.2,1.7,5.5,3.4,3.7,8.7,3.8,10.2.5,1.4-3,.3-5.6-2.2-7.9h0ZM2650,1404.2c1.6.6,3.5,1.9,4.8,1.5,2.9-.9,4.7-3.2,4-6.6-.5-2.5-4.9-3.8-7.2-2.2-2.6,1.8-2.9,4.4-1.7,7.3h0ZM2680.7,1507.5c3.2-2.6,4.6-6.3,4.2-10.4-.1-1.3-2.6-3.5-3.6-3.3-4.6.9-5.8,4.8-5.8,8.9s1.2,3.5,2.2,5c.3.4,1.8,0,3,0h0ZM1493,1810.3c6-1.8,9.9-6.1,13.4-10.8.9-1.2.7-3.5.4-5.2-.4-2.2-5.6-2-7.3.7-3,4.7-8.5,8.3-6.5,15.3ZM2947.2,933.9c3.9-.8,5.9-.9,7.7-1.5,2.4-.8,2.8-2.6,1.1-4.5-.4-.5-2-.6-2.5-.2-1.8,1.5-3.4,3.3-6.3,6.2ZM2265.3,1831c5.9.3,8.7-3.4,10-8.2.3-1.2-1.2-3.1-2.2-4.5-.3-.4-2.1-.3-2.7.2-4,3.1-6.7,6.8-5.2,12.4h0ZM1662.2,2587.3c-1.7.3-4,0-4.9.9-1,1-1.3,3.5-.8,5,1,2.9,5.1,2.4,6.3-.9.5-1.4-.3-3.3-.6-5.1h0ZM656.1,3143.1c1.6.8,3.4,2.5,4.8,2.2,2.5-.5,4.8-2,7-3.3.2-.1,0-2-.6-2.3-3.8-2.6-7.2-.6-10.5,1-.5.2-.5,1.6-.7,2.4h0ZM654.6,3167.4c1-1.6,2.6-3.1,2.8-4.8.2-1.6-.7-4.1-1.9-4.9-1.2-.8-3.8-.7-5.1,0-2.7,1.6-3.1,4.6-2.3,7.7.2.9.9,2.4,1.4,2.5,1.7.1,3.4-.3,5.1-.5ZM1218.5,2789.7c.5-.7.7-1.7,1.1-2.6-1.5.3-3.5.1-4.4,1-1.1,1.1-1.1,3.1-1.6,4.7.9-.3,2-.5,2.8-1s1.6-1.3,2.2-2.2h0ZM2329.5,954.6c2.7.8,4.6,1.9,6.4,1.7,3.5-.3,4.7-3,4.4-6.2s-3.6-4.6-6.2-2.2c-1.9,1.7-2.9,4.3-4.5,6.7h0ZM2750.8,1373.6c1.3-1.3,2.4-2.9,3.4-4.5.2-.3-.7-1.9-1.1-1.9-3.5,0-4.7,2.8-5.7,5.5-.2.5.6,1.8.8,1.8.9,0,2.1-.3,2.6-.9ZM2320.2,964.9c-4.4,3.4-6.3,4.8-8,6.3-.3.2,0,1.1,0,1.6.8-.4,1.7-.6,2.3-1.2,1.3-1.3,2.4-2.8,5.7-6.8h0ZM2697.6,1370.8c-1.5,1.1-3.1,1.9-4.4,3.2-1.8,1.9-1.5,3.5.6,3.8.5,0,1.5-1,1.9-1.8.8-1.7,1.3-3.5,1.9-5.2ZM1940.8,2300.3c1.8-.2,4.1.1,5.4-.8,2.5-1.8,1.3-7.1-1.4-6.8-1.7.2-3.8,1.3-4.6,2.7-.7,1.1.3,3.2.6,4.9h0ZM2467.3,1663.9c1.8.6,3.6,2,5.3,1.8,3.7-.4,4.1-3.7,3.7-6.6-.2-1.3-2.2-3.3-3.2-3.3-4,.2-7,4.9-5.8,8h0ZM648.5,3019.2c5.2-.7,8.6-3.3,9.2-8.8-5.5.4-8.1,3.8-9.2,8.8ZM2515.8,1607.6c2.7.7,7.4-3.9,8-8.1,0-.7-1.1-2.1-1.9-2.3-3.9-1-5.4,1.8-6.7,4.6-.4.9-.7,2-.6,3,.1,1,.8,1.9,1.3,2.8h-.1ZM916.5,3311.2c-1.8-.2-4.4-1.1-5.3-.3-1.1,1-1.5,3.6-1.1,5.3.5,2,2.8,2.2,4.5.1,1.1-1.4,1.3-3.4,1.9-5.1h0ZM2238.6,1905.8c.9.2,2.1.8,2.7.5,3.1-1.8,4.3-7.9,2.1-9.8-.5-.5-2.4-.5-2.6,0-1.4,2.2-2.6,4.6-3.6,7-.2.5,1,1.5,1.5,2.3h0ZM780.5,3234c-.6,1.8-1.8,3.6-1.6,5.3.2,2.4,2.6,3.7,4.5,2.4,1.2-.9,2.3-3.6,1.8-5-.5-1.3-3-1.8-4.7-2.7ZM1247.2,2732c4.2,1.6,6.3-.7,7.9-3.1.9-1.4.7-3.6,1-5.5-1.8.4-4.3.1-5.2,1.2-1.7,2.1-2.5,5-3.6,7.4h-.1ZM2135.3,2076.6c6.1,0,8.1-4.1,9.3-9.1-5.9.1-8,4.2-9.3,9.1ZM737.1,2942.4c.7-1.6,2.1-3.2,2-4.7-.2-2.7-4.3-4.4-6.2-2.7-1.2,1-2,3.2-1.9,4.8.2,3,3.3,4.1,6.1,2.6h0ZM735.2,2652.5c2.4-.3,3.2-1.6,2-3.8-.4-.7-1.6-1.7-1.9-1.5-1.4.7-2.5,1.8-3.7,2.8,1.2.8,2.4,1.7,3.7,2.5h0ZM2904.8,1127.2c-1.5.8-3.3,1.4-4.1,2.7-1.6,2.4-.5,3.8,2.1,2.6,1.4-.6,2.2-2.5,3.1-3.8.1-.2-1-1.5-1.1-1.4h0ZM2443.8,877.4c.7-.7,1.5-1.2,1.9-2,.2-.5-.2-1.4-.4-2.1-.8.2-2.1,0-2.4.7-.7,1.2-1,2.7-1.5,4.1.8-.2,1.6-.5,2.3-.7h0ZM2734.8,1314.4c.9-.4,2.3-.7,2.6-1.4.8-2.3-.2-3.9-2.7-4.3-.9,0-2,.2-2.7.7-2,1.5-2,3.3,0,4.5.8.5,1.9.3,2.9.5h-.1ZM2220.1,1055.6c.7-.5,1.5-.8,2-1.4.6-.6.9-1.4,1.4-2.2-.7.4-1.5.8-2,1.3-.6.6-1,1.5-1.4,2.2h0ZM1536.3,2647.1c.7.4,1.5,1.2,1.9,1.1.8-.4,1.6-1.2,2-2,.3-.7,0-1.6,0-2.5-1.3,1.1-2.6,2.3-3.9,3.4ZM955,2455.4c.8-.4,1.8-.5,2.3-1.1,1.8-2.1,1.4-3.3-.8-2.7-.7.2-1.4,1.1-1.8,1.9-.2.5.2,1.3.3,1.9h0ZM555.8,3251c.4-1.8.9-3.6,1.3-5.4-1.7.1-3.8-.4-5,.4-3,2.2-3.6,6.1-1.5,6.4,1.6.2,3.5-.9,5.2-1.4ZM1408,2902.9s-1.1-1.2-1.6-1.2c-3,0-6.5,4.9-4.5,5.9.7.4,2.3.3,2.8-.2,1.3-1.3,2.3-3,3.3-4.6h0ZM2165.8,1992.5c.8-.5,1.6-1,2.3-1.5-1.1-1.4-2.2-2.7-3.4-4,0,0-1.9,1.4-1.8,1.5.8,1.4,1.9,2.7,2.9,4ZM2523,1562.9l2-.5-.9-1.3-1.1,1.8ZM2543.7,1640.1l-2.1.4,1.1,1.5,1-1.9ZM2272.8,1885.4c.6-.3,1.4-.6,1.9-1.1s-.2-1-.4-1.5c-.6.3-1.4.6-1.9,1-.2.2.3,1,.4,1.5h0ZM2106.7,2115.6c.2-.9.5-1.7.7-2.6-.8-.1-2.2-.5-2.2-.3-.4,1.3-.6,2.7-.9,4,.8-.4,1.6-.7,2.4-1.1h0ZM2079.6,2113.2c-.8,0-1.7,0-2.2.3-.5.4-.6,1.4-.8,2.1.8,0,1.7.1,2.2-.3.5-.4.6-1.4.9-2.1h0ZM1793.1,2446.2c.4-.7.7-1.3,1.1-2-.5-.2-1.3-.7-1.4-.5-.5.5-.8,1.2-1.2,1.9.5.2,1,.4,1.5.6ZM1748,2524.1c.7.3,1.8,1.1,2,.9.7-.6,1.1-1.5,1.6-2.4-.7-.3-1.7-1.1-2-.8-.7.5-1.1,1.5-1.6,2.3ZM1599.6,2683.7l-2.3.5.8,1.5,1.5-2ZM1570.6,2659.7c-.7-.4-1.4-1.3-2-1.2-.8.2-2,.9-2.2,1.6-.8,2.6.4,3.4,3,2,.6-.4.8-1.6,1.2-2.4h0ZM1501.9,2690.3l1.1,1.4,1.3-2.2-2.4.7h0ZM965.8,2428.3l.6,2.2,1.4-1-2-1.3h0ZM1236.8,2745.7c0-.9.2-1.9.3-2.8-1.6.6-3.3.9-4.8,1.8s-.2,1.8-.3,2.7c1.6-.6,3.2-1.1,4.8-1.7ZM798.4,2584.9l-1.9.4.6,1.1,1.2-1.6h.1ZM809.6,2626l2.5-.7-.9-1.5-1.5,2.2h0ZM781.8,2600.1c-.8.4-1.8.7-2.3,1.3-.2.3.4,1.3.6,2,.8-.4,1.8-.7,2.4-1.3.2-.2-.5-1.3-.8-2.1h0ZM831.9,2827.7l-.8-1.1-1.1,1.8,2-.7h-.1ZM718.2,2932c.6.3,1.3.7,1.9,1,.4-.7.7-1.4,1.1-2.2-.6-.3-1.6-1-1.8-.9-.6.5-.8,1.3-1.2,2h0ZM680,3011.2l-.6-2.5-1.6,1.1,2.2,1.4h0ZM632.5,3006.4l-.7-2.7-1.8,1.3,2.5,1.4ZM833.3,3246.4c.3-.7.6-1.5.9-2.2-.8,0-1.8,0-2.3.3-.6.4-.7,1.4-1,2.2.8,0,1.6-.2,2.3-.3h0ZM833.9,3270.4l-2.2.6,1,1.4,1.2-2ZM771.7,3398.6l2.4,1-1-2.5-1.5,1.5h0ZM547.1,3230.6c1.8-1.7,1.6-2.9-.6-3-.4,0-.8,1.3-1.2,2,.6.3,1.2.7,1.8,1ZM2947.6,633.4c.2-.8.3-1.7.5-2.5-.7,0-1.7-.6-2.2-.4-2,1.2-2.2,2.7-.5,3.7.4.2,1.4-.5,2.2-.8ZM2946.9,1120c-.8-2.7-2-3.4-3.4-1.7-.2.2.8,1.7,1.4,2.3.3.2,1.3-.4,2-.6h0ZM2885.6,1290.6l.9-2.3-2.2,1,1.3,1.3ZM2801.1,1268.1c.7-.4,1.4-.6,1.9-1.1s-.3-1-.5-1.5c-.7.3-1.4.6-1.9,1.1s.3,1,.5,1.5ZM2359.5,934.3c-.8,0-1.7,0-2.3.5-.6.4-.8,1.4-1.1,2.1.8,0,1.7,0,2.3-.5s.8-1.4,1.1-2.1ZM2296.1,989.3c.7-.4,1.5-.6,2-1.1.2-.2-.3-1-.4-1.6-.7.4-1.5.6-2,1.1-.2.2.3,1,.4,1.6ZM2646.4,1421.5c-.7.4-1.7.5-2.1,1.1-1.5,2.4-.8,3.3,1.8,2.2.6-.3,1.1-1.3,1.3-2,0-.3-.7-.9-1.1-1.4h.1Z"/>
    <path class="st0" d="M631.8,3363.3c-7.1.1-14.2.3-21.7.5-3.3,4.7-6,8.9-9.2,12.7-2.5,3-5.1,7.1-8.5,8-20.1,5.2-32,20.5-44.5,35-2,2.3-4.2,4.5-5.8,7.1-13.1,22.2-33.6,37.8-50.4,56.7-1.9,2.1-5.1,3.1-8.4,5.1-1-3.2-3.5-7-2.5-8.5,8.5-12.6,16.7-25.6,26.8-36.8,9.4-10.4,17.3-22.5,30.2-29.7,3-1.6,4.5-7,2.5-11.1-1.8-3.7-5.1-6.7-9.6-6.7s-5.7.8-8.4,1.2c-2.4-4.1,0-6.5,1.9-8.7,7.9-9.1,17.2-16.8,21.2-29.2,2.5-7.8,11.3-10.8,19.2-14.1,2.5,1.7,5,3.4,7.5,5v-1.1c-.7,1.8-2.5,4.1-1.8,5.2,2,3.6,4.5.4,6.8-.1l-1.1-.2c5,6.6,4.8,13.2-.4,19.2-6.5,7.5-13.4,14.6-20.1,21.8-2-2.1-4-4.3-5.9-6.4,4-4.2,8-8.4,11.9-12.6.2-.2-.5-1.6-1-1.9-.8-.4-2.1-.7-2.7-.3-5,3.6-8.4,8.1-7.5,14.9,1.7,1.9,3.4,3.8,5.1,5.7,1.9-.8,4-1.3,5.5-2.5,11.1-8.6,22.3-17.2,33.1-26.2,10.7-9,23.2-16,31.7-27.6,4.2-5.6,10-10.2,13.6-16.1,7.1-11.5,17.5-19.5,28.7-31.7-6.5,14-9.3,26.6-8.5,37.7-3.2,1.7-7.5,2.9-9.9,5.7-2.3,2.8-1.7,7.9-3.8,10.9-4.6,6.7-10,12.7-15.1,19h1.1Z"/>
    <path class="st0" d="M572.3,3350c3.4-16.3,12.7-29.8,19.5-44.5,3.6-7.7,3.7-7.7,4-24.3,0-2.8,1.5-6,3.4-8.1,3-3.4,7.5-1.9,11.5-1.7,3.8-2.2.7-5,.5-7.5-.7-6.9,1.5-9.9,7.7-10.1,3-.1,6.2.9,9.2.6,4.8-.5,10-5.6,10.2-10,.3-6.1-.4-12.3,0-18.4.3-2.8,1.8-6.2,4-7.9,1.9-1.6,5.5-1.8,8.2-1.5,1.3.2,3.5,3.1,3.4,4.7-.5,12.2-2.1,24.4-8.3,34.9-10.4,17.3-21.1,34.2-37,47.7-14.9,12.7-17,21.4-21.3,46.4-3.5,1.1-7.3,2.3-11.2,3.5l1.1.2c-1.7-1.7-3.4-3.4-5-5.1v1.1h0Z"/>
    <path class="st0" d="M1994.3,2137.2c7-17.5,6.4-35.4,21.5-46,4.5.2,9.7.8,13.5-3.5,3.3-3.8,6.5-7.7,10.2-11,5-4.5,13-1.7,14.4,4.7,1.3,6,3,11.9,3.6,17.9.4,4.2-2.2,7.5-6.4,9.4-4.8-2.9,0-6.8-1.2-10-.4-.9-.6-2-1.3-2.7-1.6-2-3.8-2.4-5.3-.7-4.6,5.2-8.4,11.1-13.4,15.7-5.1,4.8-11.2,8.5-17,12.5-5.6,3.8-7.7,11.8-18.6,13.8h0Z"/>
    <path class="st0" d="M1873.3,1379.9c-30.1,24.4-48.2,53.6-76.2,72.6-.5.4-1.8-.3-2.7-.4,7.2-18.8,8.9-24,18.8-29.5,11-6.1,19.4-15.1,27.6-23.7,7.9-8.2,16.5-14.2,32.5-19h0Z"/>
    <path class="st0" d="M557.1,2874.2c3.7-1.8,7.5-3.3,11-5.4,4.8-3,6.3-7.7,5.5-13.3-4-3.6-7.2.8-11.6.5,2.1-7,5.6-12.4,12.2-15.6,7.8.8,8.2,7.9,11.2,12.9-.3,2,0,4.5-1.1,6-7.1,9.9-14.1,19.9-21.9,29.3-3.9,4.7-8.6,8.6-10.6,14.7-1.4,4.3-4.5,6.6-9.2,6.2-.8,0-1.7-1-2.4-1.7-3.3-3.4-2.9-4.5,4.3-12.2,1.4-1.5,2.8-2.9,3.9-3.9,2.4-4.9-1-8.2-2.3-11.9-1.8-4.9.4-7.6,5.9-7.1,2,.2,4,1.1,6,1.7l-1,2.1v-2.2h0Z"/>
    <path class="st0" d="M1865,2417.2c4.4-11.7,9.3-19,15.1-25.7,5.9-6.8,12-13.5,18.2-19.9.8-.8,4.1-.6,4.9.3,1.1,1.2,1.9,4.4,1.2,5.3-10.8,13-22,25.8-33.1,38.6-.5.6-1.9.5-6.3,1.4h0Z"/>
    <path class="st0" d="M2436.3,1769c-5.7,9.9-9.6,19.4-18.2,25.3-1.7,1.2-5.8,0-8.4-1.2-2.6-1-2.8-6-.6-8.1s4.6-3.9,7-5.7c5.2-4,7.8-8.9,6-15.9-.3-1.1,2.1-3.9,3.5-4,1.5-.2,3.5,1.7,5,3s2.7,3.1,5.9,6.6h-.2Z"/>
    <path class="st0" d="M614.3,2835.3c-9.5-1.6-13.2,8.3-21.3,10.2-5-6-4.3-14.6-9.7-20.5-1.2-1.3,3.7-6.7,5.5-5.7,9.1,4.9,17.3,2.5,25.5-1.4h-1.2c.5,5.8,3.9,11.8.2,17.7l.9-.3h0Z"/>
    <path class="st0" d="M623,3218.6c-6.9,5.9-13.8,11.7-20.4,17.4,1.5-15.1,2.1-16.1,21.4-33.7.7,1.8,2,3.7,1.8,5.3-.6,4-2,7.8-3,11.7l.3-.5v-.2Z"/>
    <path class="st0" d="M439.1,3244.7c4.6,5.3,2.9,10.1,1.4,14.4-1.8,5.5-2,12.1-7.5,15.7-1.5,1-3.9,1.6-5.5,1.1-1.5-.4-3.9-2.7-3.7-3.8,1.5-11.2,5.8-20.7,15.3-27.5h0Z"/>
    <path class="st0" d="M1962.6,2205.1c1.9-7.7,2.3-14.2,5.2-19.2,3.6-6.1-2.6-12,1.1-17.4.5-.8,1.4-1.6,2.3-1.8s2.9.3,2.9.5c.2,9,5.1,17.8,1.2,27-2.1,4.9-4.6,8.9-12.6,10.9h0Z"/>
    <path class="st0" d="M469.6,3203.2c4.3,1.5,8.7,3,13,4.6v-.9c-2.9,11.5-15.2,16.1-19.3,26.7-1.1,2.9-3.6,4.9-7.2,3.2-2.4-1.2-3.3-5.6-1.8-8,5.4-8.5,10.7-17.1,16.1-25.6h-.8Z"/>
    <path class="st0" d="M1942.8,2224c1.7,1.1,3.6,1.9,4.9,3.4,1.2,1.3,1.6,3.3,2.4,4.9-10.6,2.9-7.1,17.7-17.7,20.8-3.5-4,1.4-6.5,1.5-9.9,0-4-.7-8.2.3-11.9,1-3.8,4.1-6.7,8.5-7.4h0Z"/>
    <path class="st0" d="M1392.6,1907.5c2.1,7.4,1.8,11.7-1.9,14-6.6,4.1-14.3,6.4-20.4,12,3.2-7.9,8.4-13.6,13.6-19.3,2-2.2,4.7-3.6,8.8-6.7h0Z"/>
    <path class="st0" d="M576.7,3307.3c-2.6.9-5.3,2.2-8.2,2.7-4.5.7-10.7-2.3-10.1-4.6.6-2.8,1.7-6,3.7-8,2.8-2.8,6.6-4.6,9.8-6.7,6.7,4.4,5.7,10.4,4.8,16.7h0Z"/>
    <path class="st0" d="M675.2,3395.8c-5.9,4.5-7.6,12.4-15,14.5-6.5-4.8,1.4-11.1-2.1-16.7-1.3-2.1,3.2-4.7,6.4-3.3,3.6,1.6,6.9,3.5,10.7,5.5h0Z"/>
    <path class="st0" d="M482.6,3346.2c5.7-10.7,9.7-18.5,13.9-26.1.3-.6,2.2-1,2.6-.6,1.2,1.1,2.9,2.7,2.8,4-.4,10.2-7.3,15.7-19.4,22.8h.1Z"/>
    <path class="st0" d="M734.8,3047.7c-5.9-1.1-9.1-4.9-7.6-10.4,1.2-4.6,4.4-8.6,6.9-12.7.3-.6,2.4-.9,2.7-.5,1.1,1.2,2.8,3.5,2.3,4.2-3.7,6-3.6,12.8-4.3,19.5h0Z"/>
    <path class="st0" d="M431.3,3303.5c.2,2,1.2,4.5.4,5.8-2.7,4.2-5.9,8.3-9.4,11.9-4,4.1-7.9,8.6-14.5,12.4,5.5-13.3,13.6-23.3,24.3-29.9l-.8-.2Z"/>
    <path class="st0" d="M693.8,3364.2c-2.4,9.9-5.7,14.6-10.1,18.5-2,1.8-6.5,1.1-7.4-1.5-.6-1.7-.9-4.7,0-5.4,4.5-3.5,9.4-6.4,17.5-11.7h0Z"/>
    <path class="st0" d="M1994.5,2082.5c1.7-5.6,3.4-11.2,5.1-16.8,7.9,3.5,9.4,5.4,7.2,9.3-1.9,3.4-4.3,6.6-7,9.3-.5.6-3.4-1.1-5.4-1.8h.1Z"/>
    <path class="st0" d="M1962.5,2120.9c-1.7.3-3.4.8-5.1.7-.7,0-1.8-1.2-2-2.1-1.6-6.7,0-10.5,6.4-14.6.7-.5,2.1-.7,2.8-.3.7.4,1.4,1.6,1.5,2.5,1,5.2-.6,9.7-3.7,13.7h0Z"/>
    <path class="st0" d="M592,2909.9c-4-2.9-8-5.9-12-8.8.7-5.6,3.7-9.2,9-10.9,2.2,6.5,4.4,12.9,2.1,19.8h.9Z"/>
    <path class="st0" d="M529.8,2893.1c2-1.4,3.6-2.6,5.4-3.5.7-.4,2.3-.4,2.6,0,.5.7.9,2.3.5,2.9-2.8,4.2-5.7,8.3-9,12.1-.9,1-3.3.6-5.1.9,0-1.9-.4-4.1.4-5.6,1.4-2.6,3.6-4.8,5.3-6.9h-.1Z"/>
    <path class="st0" d="M586.2,3419c-3.9,7.3-8.1,11.9-16.4,16.4l16.4-16.4Z"/>
    <path class="st0" d="M461.5,3502.6c-1-3.2.1-5.5,2.7-7.1s6.6-.3,6.9,2.4c.4,3.3-1.5,5.6-4.4,6.3-1.5.4-3.4-1-5.1-1.6h-.1Z"/>
    <path class="st0" d="M2024.7,1224.4c.5-1.8.6-4.2,1.7-5.4,3.3-3.6,7-6.7,11.8-11.1-1.8,9.4-1.7,9.5-13.5,16.5Z"/>
    <path class="st0" d="M434.1,3335.5c-1.7-.5-4.1-.6-4.9-1.7-1.8-2.8-1-6,1.5-8,1.2-.9,3.5-.6,5.3-.4.6,0,1.4,1.5,1.6,2.4.6,3.4-.8,5.9-3.6,7.7h.1Z"/>
    <path class="st0" d="M1825.9,2443.3c8-3.8,10.1-14.9,20.8-16.5-1.4,10.9-9.2,15.5-16.5,20.6h1c-1.7-1.7-3.5-3.4-5.2-5.2v1h-.1Z"/>
    <path class="st0" d="M1904.6,2180.9c0,.9.7,2,.4,2.7-1.5,3.8-3.6,6.9-8,7.7-.3,0-1.5-1.6-1.4-1.9,2.1-3.1,4.3-6.2,6.6-9.1.2-.3,1.5.4,2.4.6Z"/>
    <path class="st0" d="M1704.8,2583.7c4.2-4.4,8.2-9,14.4-10.5,2.5-.6,4.1.2,4.4,2.4,0,.7-.7,2-1.4,2.2-5.8,1.8-11.6,3.4-17.4,5v.8h0Z"/>
    <path class="st0" d="M631,3363.3c-2.4,5.1-3.9,11-10.9,12.1,1.9-6.1,6.6-9.3,11.7-12.1h-.8Z"/>
    <path class="st0" d="M698.5,3487.5l-2.7.9c-.3-1.7-1.3-3.8-.8-5.1.6-1.3,2.9-2.9,4.2-2.7,2.5.4,2.8,2.6,1.3,4.7-.6.8-1.3,1.5-2,2.2h0Z"/>
    <path class="st0" d="M513.7,3358.8c1-5.2,3.4-8.9,9.3-9-1.2,4.9-3.2,9.1-9.3,9Z"/>
    <path class="st0" d="M568,3411.5c0-.8-.2-1.8,0-2.2,1.4-1.4,3-2.5,4.6-3.7,0,.7.2,1.6-.2,1.9-1.4,1.4-2.9,2.6-4.5,3.9h0Z"/>
    <path class="st0" d="M1372.1,1912.8c-1.2,4.2-3.6,7.1-7.9,8.3,0-5.4,3.2-7.5,7.9-8.3Z"/>
    <path class="st0" d="M470.4,3203.2c-1.8-2.1-3.6-4.4-5.5-6.4-2.1-2.2-2-3.3.5-3.3s1.8,1,2,1.8c.9,2.6,1.5,5.3,2.2,7.9h.8Z"/>
    <path class="st0" d="M688.6,3441.2c.8-1.8,1.2-3.9,2.4-4.8,2.1-1.4,3.8-.3,3.8,2s-.6,2.3-1.2,2.4c-1.5.4-3.2.2-5,.3h0Z"/>
    <path class="st0" d="M666.4,3463.9c.3.4.8,1,.7,1.1-.6.7-1.3,1.3-2,2-.3-.4-.9-1.1-.8-1.2.6-.7,1.4-1.3,2.1-1.9h0Z"/>
    <path class="st0" d="M513.3,3342.4c-.2-.7-.6-1.5-.4-2,.4-.8,1.2-1.8,2-2,2.4-.7,2.9.5.9,2.9-.5.6-1.7.8-2.5,1.1Z"/>
    <path class="st0" d="M494.8,3362.8c-2.3,1.6-4.1,1.3-3.7-.3.5-1.8,2-3.3,3.4-4.7.5-.5,1.9-.1,2.9-.1-.9,1.7-1.7,3.4-2.6,5.1h0Z"/>
    <path class="st0" d="M440.6,3344.5c-.9.2-1.7.4-2.6.6-.1-.8-.6-1.8-.3-2.4,1.2-2.3,2.7-2.5,3.8-.5.3.5-.6,1.5-1,2.3h.1Z"/>
    <path class="st0" d="M2460.7,1735.5c-.8.5-1.8,1.6-2.4,1.4-2-.7-1.9-2.4.4-4,.7-.5,1.8-.2,2.8-.3-.3.9-.6,1.9-.8,2.8h0Z"/>
    <path class="st0" d="M1302.7,1995.3c-2.3,1.2-4.3.6-4-1.4.2-1.6,1.9-3,3.2-4.3.3-.3,1.7.4,2.5.6-.5,1.7-1.1,3.3-1.6,5h0Z"/>
    <path class="st0" d="M533,2925.6c-1.8.4-3.7,1.5-5.4,1.1-2.4-.5-1.7-5,1.3-6.6,1.4-.7,3.5,0,5.3,0-.4,1.8-.8,3.7-1.2,5.5h0Z"/>
    <path class="st0" d="M876.6,3338.4c-.4-1.8-1.7-4-1-5.3.7-1.4,3.1-1.8,4.8-2.6.3,1.9,1.1,3.9.9,5.7-.3,2.6-2.2,3.3-4.6,2.2h-.1Z"/>
    <path class="st0" d="M887.7,3350.8c-.5-.6-.9-1.1-1.3-1.6.7-.6,1.5-1.2,2.3-1.7,0,0,1.1,1.1,1,1.2-.6.8-1.3,1.4-2,2.1Z"/>
    <path class="st0" d="M668,3254.5c2.6.7,5.1,1.4,7.7,2.2-.4,1.6-.7,3.3-1.4,4.8,0,.3-2.3.2-2.5-.3-1.4-2.4-2.5-5-3.7-7.6v.9h0Z"/>
    <path class="st0" d="M734.5,3343.7c-.4-.5-1.2-1.3-1.1-1.5.4-.7,1.4-1.9,1.8-1.8,1.9.7,1.7,2-.7,3.4h0Z"/>
    <path class="st0" d="M426,3128.8c-.8.4-1.8,1.3-2.4,1.1-1.9-.7-1.8-2.2.4-3.6.6-.4,1.7,0,2.6,0-.2.9-.4,1.7-.7,2.6h.1Z"/>
    <polygon class="st0" points="699.5 3403.9 701.9 3402.3 700.8 3404.3 699.5 3403.9"/>
    <path class="st0" d="M1655.8,2653.3c.3-.9.4-2.1,1-2.7.6-.6,1.8-.6,2.7-.9-.3.9-.4,2.1-1,2.7-.6.6-1.8.6-2.7.9Z"/>
    <path class="st0" d="M1723.5,2494.8c-1.7-.1-3.4-.2-5.1-.3.5-1.5.9-3.1,1.7-4.4.2-.3,2.3-.1,2.5.3.6,1.4.7,2.9.9,4.4Z"/>
    <path class="st0" d="M2067,2043c-2.7-.7-5.6-1.1-8-2.4-1.1-.6-1.4-3.1-1.7-4.8,0-.6,1.3-2.1,1.8-2,1.6.4,3.6,1,4.4,2.2,1.5,2.4,2.4,5.3,3.5,7.9v-1h0Z"/>
    <path class="st0" d="M394.6,3348.6c-.6-.6-1.6-1.3-1.6-1.9,0-.9.5-2.1,1.1-2.5,2.2-1.2,3.3,0,2.6,2.7-.2.7-1.4,1.1-2.1,1.7Z"/>
    <path class="st0" d="M448.4,3385.7c.2.9.9,1.9.6,2.5-1.2,2.4-2.7,2.4-3.6.2-.3-.7.2-2,.7-2.6.4-.4,1.5-.1,2.3-.2h0Z"/>
    <polygon class="st0" points="1757.3 1486.7 1758.8 1485.2 1759.8 1487.6 1757.3 1486.7"/>
    <path class="st0" d="M2093.1,2005.9c-1.7,1.6-2.9,4.3-6.1,2.7,0,0,.5-1.9.9-1.9,1.7,0,3.5,0,5.3,0v-.9h0Z"/>
    <path class="st0" d="M1977.3,2127.6c-.2-.5-.7-1.4-.5-1.6.5-.5,1.3-.8,1.9-1.1.2.5.7,1.4.5,1.6-.5.5-1.3.8-1.9,1.1Z"/>
    <polygon class="st0" points="1878.6 2269.8 1879.8 2271 1877.9 2271.6 1878.6 2269.8"/>
    <polygon class="st0" points="1326.6 1963.2 1327.1 1965.2 1325.3 1964.2 1326.6 1963.2"/>
    <path class="st0" d="M562.9,2927.8c-.3-.7-1-1.8-.8-2,.6-.6,2-1.4,2.3-1.1,1.9,1.6,1.3,2.8-1.5,3.1Z"/>
    <polygon class="st0" points="483 2984.8 481.3 2986.5 480.4 2983.9 483 2984.8"/>
    <path class="st0" d="M468.3,3005.5h-2.5c.3-.8.3-1.9.9-2.3.5-.4,1.6,0,2.5,0-.3.8-.6,1.6-.9,2.4h0Z"/>
    <polygon class="st0" points="471.9 3025.8 473.1 3024 473.9 3025.3 471.9 3025.8"/>
    <polygon class="st0" points="472.6 3089.8 474.9 3090.9 473.2 3092.1 472.6 3089.8"/>
    <polygon class="st0" points="692.5 3312.1 695 3311.4 693.7 3313.7 692.5 3312.1"/>
    <path class="st0" d="M714.4,3390.5c-.2-.5-.7-1.4-.5-1.6,1.7-1.6,2.7-1.4,2.4.5,0,.4-1.2.7-1.9,1h0Z"/>
    <path class="st0" d="M473.5,3181.3c-2-.3-3.9-.6-5.8-1.1-.4-.1-.5-1.5-.7-2.3,3.7-1,4.8,2.1,6.5,4.2v-.8h0Z"/>
    <path class="st0" d="M464.3,3320.5c-.8.1-1.6.2-2.5.3.3-.8.4-1.8,1-2.3.6-.4,1.6-.3,2.4-.4-.3.8-.6,1.6-.9,2.4Z"/>
    <polygon class="st0" points="500.8 3373.2 498.8 3373.8 499.9 3371.9 500.8 3373.2"/>
    <polygon class="st0" points="468.7 3366.1 470.1 3367.5 467.9 3368.4 468.7 3366.1"/>
    <polygon class="st0" points="1698.9 2516.2 1699.5 2515.4 1698.2 2516.4 1698.9 2516.2"/>
    <polygon class="st0" points="1925 2220.3 1925.2 2221.5 1925.9 2220.3 1925 2220.3"/>
    <path class="st0" d="M1925.9,2220.3l-2-2c.3.7.7,1.3,1,2h1Z"/>
    <polygon class="st0" points="646.9 3421.9 647.9 3419.7 649.2 3421.3 646.9 3421.9"/>
    <polygon class="st0" points="2067 1997.4 2066.4 1999.3 2067.9 1997.4 2067 1997.4"/>
    <polygon class="st0" points="1685.9 1561.1 1687.7 1561.9 1686.3 1563.1 1685.9 1561.1"/>
    <polygon class="st0" points="565.8 3271 566.7 3269.2 567.8 3270.6 565.8 3271"/>
    <polygon class="st0" points="2120 1155.4 2120.9 1153.5 2122.1 1154.9 2120 1155.4"/>
    <polygon class="st0" points="490.6 3119.2 489.2 3119.7 490.5 3119.6 490.6 3119.2"/>
    <polygon class="st0" points="668 3253.6 666.3 3253.8 668 3254.5 668 3253.6"/>
    <polygon class="st0" points="622.7 3219.2 624 3218.3 623 3218.6 622.7 3219.2"/>
    <polygon class="st0" points="489.3 2974.5 488.4 2976.1 487.4 2974.7 489.3 2974.5"/>
    <polygon class="st0" points="580.5 2923.3 579.7 2921.7 579.6 2923.3 580.5 2923.3"/>
    <path class="st0" d="M591.1,2909.9c2.1,2.2,4.1,4.4,6.2,6.7v-.7c-3.1-.8-5.3-2.4-5.3-6h-.9Z"/>
    <polygon class="st0" points="609.9 2847.7 608.2 2848.7 609.9 2848.6 609.9 2847.7"/>
    <path class="st0" d="M2397.7,1680.9c-1.6-.4-3.3-.7-4.9-1.3-.1,0,.2-1.5.3-2.3,1.8.3,3.6.7,5.5,1-.3.9-.6,1.7-.8,2.6h-.1Z"/>
    <path class="st0" d="M2438.9,1613.7c-.7.4-1.4.7-2.1,1.1,0-1.1,0-2.4.3-3.4.1-.3,1.5,0,2.4-.2-.2.8-.4,1.6-.6,2.5h0Z"/>
    <path class="st0" d="M672.4,2762c.5.6,1.4,1.2,1.3,1.6,0,.8-.7,1.9-1.4,2.1-2.8,1-3.7,0-2.3-2.7.3-.6,1.5-.8,2.3-1.1h.1Z"/>
    <path class="st0" d="M2089.5,2055.7c-1.7-1.8-3.4-3.5-5.1-5.3,1.7,1.8,3.4,3.5,5.1,5.3Z"/>
  </g>
  <g>
    <path class="st0" d="M3437,3477.7c-1.1-10.8-11.7-8-17.1-12.7-4.4-3.8-7.9-.6-11.1,1.8h1c-3.1-1.4-7.1-2-9.2-4.4-6.8-7.9-11.9-2.3-17.7-.2-7.9-4.2-16-8.2-23.9-12.8-2.8-1.7-4-4.4-2.8-8.3,1.3-4.4-2-8.9-5.5-9.6-3.2-.7-6.6-1.7-9.7-1.6-6.5.2-12.9,1.8-20.7-2.1-2.5-5.1-3.9-13.3-8.6-16.8-13.7-10.1-25.4-23.4-41.5-30.2-4.4-1.9-8.4-1.9-12.8-1.5-5.3.5-10.9-.1-17.5-.3-6.5-9.4-11.2-19.4-14.2-30.3-1.6-5.8-7.3-8.8-13.3-7.9-6.2.9-12.3,2.4-18.5,3.6-3.7-4.6,1.2-8,.4-12.2-1.5-7.8-11.6-11.6-11-20.3-5.4-4.1-10.9-8.2-16.4-12.2-.6-.4-2.4,0-2.8.5-1.1,1.6-3,4.1-2.4,5.1,3,4.8,6.9,9,9.9,13.7.9,1.4.1,3.9-.4,5.8-.1.5-2,.9-2.9.6-2.1-.5-4.3-1.3-6.3-2.3-5.8-2.7-10.5-1.7-15.2,1.6-5.2,3.7-9.4,8.2-12,14.1-.7-3.3-1.5-6.6-2.2-9.9-2.2-9.6,1.7-14.4,10.9-15.5,2.3-.3,2.5-2.8.8-5.1-5.2-.5-10.5-1-15.5-1.5-3-4.3-5.4-8.2-8.2-11.8-3.5-4.4-7.2-4.3-10.8,0-.6.8-.9,1.9-1.2,2.9-1.2,3.7-3.7,4.4-7.2,2.3-3.1-1.9-6.1-5.1-4.9-8.2,2.7-6.9,7-12.9,9.6-19.8.9-2.4-.3-7.5-2.3-9.1-6.3-4.8-13.4-8.6-20.2-12.6-.3-.2-1.3.9-2.3,1.6-.5,8.2,13.4,9.8,10.8,19.3-3,2.4-6.2,4.8-9.4,7.3,1.4,8.6,2.8,17.2,4.2,25.8h-1.6l1.7-.3c2.8,1.8,6.4,2.9,8.1,5.4,6.6,9.4,14.8,16,25.4,20.2,5,2,9.5,5.4,14.2,8.1,4.4.3,8.8.6,11.5,5.3-3,6.2-10,6.7-15.3,9.6-2.1-.5-4.9-.4-6.3-1.7-9.4-8.7-20.1-14.7-31.8-19-10.6-3.8-21.1-8-31.5-12.2-8.7-3.5-14.3-10.3-19-18.3,3.5-1,6.3-1.8,9.1-2.7.5-5.7-1.6-10.8-5.5-15.4,4.7-5.2,15.4-1.4,17.9-10.8-4.3-.9-8.5-1.9-12.7-2.8,1.4-4.3.5-8.2-2.9-11.9-6-1.3-11.7-6.7-18.1-3.1-2.6,3.6-3.1,7.4.1,12.1,7.1.9,14.5,1.8,21.9,2.7-1.8,4.6-3.5,9.2-5.3,13.8-10.4-3.2-14.5,6.5-22,9.1-12.4-5.7-10.2-16.3-10.8-25.8-4.2-5.6-7.8-.9-11.6-.8-3.1.1-6.7.3-9.5-1-8.3-3.9-15.8-9.1-22.7-15.5-10.1-9.4-20.3-19.3-32-26.2-9.7-5.7-11.3-13.5-13.7-21.7-3.7-4.3-8.1-3.8-12.5-4-8.2-.4-15.3-4-20.8-10.5-11.4-13.5-25.7-22.7-40.5-32-16.4-10.4-31.6-23.4-46.3-36.4-38.2-33.7-80-63-118-96.8-29.4-26.1-60.3-50.5-91.4-74.3-33.2-25.4-63.6-54.1-96.3-79.9-3.6-2.9-7.1-6-10.3-9.3-5.4-5.6-6.5-11.8-3.7-18.3.8-1.9.9-4.2,1.4-6.3.8,3.1,1.6,6.3,2.5,9.4.3,1,.8,2.2,1.6,2.8,1.7,1.2,3.5,2.7,5.4,3,2,.3,3.5-6.5,1.5-8-3.4-2.5-7.3-4.3-11.1-6.4-4.8-3.1-9.6-6.2-14.4-9.3-7.5-2-4.6,9.3-11.4,8.2-1-.2-2.3-.2-3.1-.8-18.2-14.2-36.3-28.4-54.3-42.9-6.5-5.2-6.4-9-.4-19.4,1.7.8,2.1,5,5.2,2.5-1.7-.6-3.4-1.1-5.2-1.7-3.5-2.9-6.8-6.6-11.7-4.8-5.4,2-11.2,1.8-15.4-2.8-16.7-17.8-37.7-30.6-54.5-48.1-1.3-1.3-1.4-3.8-2.3-6.1,19.2-3.2,27.4,17.4,42.6,23.2-.3-7.4-7.3-8.1-10.9-11.9-4.8-5-9.9-9.8-14.9-14.6-4.2-4-8.3-8-12.6-12-5.1-4.7-10.2-9.5-15.4-14.1-5.2-4.5-10.3-9.3-16.1-12.9-6.7-4.3-12.1,3-18.8,1.5-2.2-.5-4.3-1.4-6.5-2.2-8.3-10.1-5.2-24.9-15.8-33.6-9.8-8-21-14.1-31.2-21.7-7.3-5.4-13.1-13.4-20.9-17.2-8.8-4.3-15.5-9.8-20.8-17.5-7.5-11-18.6-12.1-29.5-14.4h.9c-3.4-.3-7.4-.8-8-4.7-1.1-7.2,1.9-14.8-7.6-20.4-6.7-3.9-12.5-3.7-19.1-3.4-1.3,0-3.8-2.7-4.2-4.4-.3-1.4,1.6-3.2,2.6-4.7.6-.9,1.6-1.4,2.1-2.3.5-.8.5-1.9,1.1-4.8-8.9-13.3-22.3-24.5-33.7-37.4-1.4-1.6-4-2.8-6-2.9-8.9-.4-14.7-6.2-19.2-13-10.5-15.7-25.8-25.6-40.8-35.9l-1.4-.9,1.8,1.7c-4.2-1.7-8.7-2.8-12.4-5.3-8.5-5.5-9.5-19.4-22.1-20.5-6-7-12-14-18.4-21.5-2.8-.4-6.2-1.6-9.2-1.2-5.7.8-10.5,0-15.7-3.5-11.1-7.6-17.4-18.6-23.7-29.6-1.4-2.4-.7-6.5.2-9.3,1.5-4.9-1-8.6-3.6-12.4-4.6-6.7-8.9-7.6-16.8-3.7-1.8.9-3.6,1.7-5.4,2.6-.8-.9-2.2-1.9-2.2-2.6.8-20.8.7-21-18-21.3-2.2,0-4.4.2-6.5,0-4.1-.3-7.9-5-7.6-9.7.2-3.1,1.7-6,1.8-9.1,0-2.8-4.8-6.8-7.3-6.2-2,.5-3.7,1.7-5.6,2.4-7.1,2.8-10.6,2-13.8-3.5-2.9-5-5.1-10.2-7.7-15.6-7.6-8.3-20-9-27.7-19.4-6.6-8.8-17.6-14.5-26.2-22-8.8-7.6-17.5-15.3-25.5-23.8-7.9-8.4-18.1-14.8-24.3-27.7.6-4.7,1.2-11.1,2.1-17.4.8-6.1-2.1-10.7-6.6-14.5-4.2-1.9-6,.5-8.1,3.1-1.9,2.4-4.1,4.6-6.7,6.3-3.6,2.3-9.6-.8-10.6-5-1.8-7.9-2.2-15.3,2.1-22.1.7-1.1-.6-4.5-1.9-5.8s-4.1-.2-5.2.8c-3,2.8-4,7.6-10.8,7.9-9-6.4-21.4-12.2-27.9-22.8-5.3-8.7-11.6-13.8-19.9-18-1.8-.9-3.1-3.3-4.3-5.2-.5-.8-.4-2.6.2-3.1,1.3-1.1,3.7-2.8,4.7-2.3,2.9,1.5,6.2,3.6,8,6.3,6.2,8.9,15.3,14.2,23.2,21,1.7,1.5,3.8,3.2,5.8,3.6,3,.5,7.2.9,8.9-.7,1.6-1.6,2-6.7.6-8.7-11-14.9-22.1-30.2-42.3-34.3-.8-6.3-1.4-11.6-2.2-18.3-13.4-12.6-24.9-28.9-43.4-37.6-3.6-1.7-6.1-6.5-9-10-5-6.3-9.6-13-14.9-19-4.5-5.1-9.9-4.8-15-1.9-5.1-4.5-10.2-9-15.4-13.4-.4-.4-1.9,0-2.5.6-.6.6-1.4,1.8-1.1,2.5,1.2,3,2.1,6.8,4.4,8.8,4.7,4.1,10.1,4.3,14.6.4-.8,9.3-5.7,15.8-14,20.8-2.5-1-6.2-1.6-8.4-3.6-15.3-14.2-30.5-28.5-45.3-43.3s-4.1-8.1-5.5-12.3c-1.3-3.7,4.2-9,7.9-7.5,5.3,2.1,10.4,4.9,15.7,6.8,1.4.5,4.3-.6,4.9-1.8.8-1.7.7-4.7-.4-6.3-2.6-3.7-5.4-8.3-9.1-10.1-9.1-4.5-14.2-11.1-16.1-20.6,0-.6-4.4-1.9-5.2-1.2-2.2,1.9-4.3,4.5-5.3,7.3-1.4,4-2,8.5-6.8,9.7-5.4,1.3-10.8,0-15.9-3.4-11.5-7.9-22.6-16.2-30.5-28.1-3.2-4.8-6.6-9.6-10.5-13.8-3-3.3-6.7-6.9-10.6-8.2-11.4-4.1-19.6-12.3-26.7-21.4-7.3-9.2-15.7-16.9-24.5-24.5-18.4-16-35.4-33.4-50.6-52.4,1.2-1.6,2.5-4.5,3.4-4.3,4.2,1,8.3,2.7,12.4,4.4,5.9,2.4,7.6,1.3,6.7-5-1.1-7.9-1.2-8.3,5.8-10.6,4.3-1.4,7.6-3.4,9.5-7.4l1.5,1.5-1.6-.6c-6.4-4.9-12.8-9.8-19.2-14.7-7.5-1.7-11.3,5.1-17.1,5.8-8.1,1.4-12.6-5.9-20.5-8.2,1.4,7.5,2.7,14.5,4,21.1-2.4.5-3.6,1.2-4.2.9-3-1.7-6.2-3.3-8.6-5.7-38.1-39.3-80.5-74-118.9-113-9.8-9.9-19.5-20-29.3-30-4.1-4.2-7.6-9-12.2-12.5-34.8-27-63.2-61.3-97.5-88.9-11.7-18.7-33.1-29.4-42.7-50-2.6-5.5-7.7-8.1-12.5-11.4-15.4-10.4-28.8-22.9-40.9-37.4-17.8-21.4-37.9-41-56.9-61.5-38.7-41.8-77.6-83.5-115.9-125.7-12.5-13.8-24-28.5-35.3-43.2-32.5-42.4-62.8-86.3-92.5-130.6-16.7-25-33.7-50-50.2-75.1-14-21.3-25.9-43.7-36.9-66.5-5.8-11.9-8.5-23.4-3-35.1,1.7-3.7,4-8.5,2.9-12.2-4-14,4.2-25.6,1.2-38.5,4.9-2.8,10.6-4,11.7-7.2,4.3-11.8,14-14.3,24.9-15.8.9,0,1.5-1.4,3-2.9-1.6-7.9-3.4-16.6-5.2-25.4,6-7.6,11.7-14.8,17.9-22.7,2.6.6,5.7,1.2,8.7,1.9,3.2.8,6.4,1.6,7.7,2,4.9,0,5.2-1.5,4.7-4.5-3.9-22.8-1-43.4,10.7-62.4,4.7-7.7,13.5-9.7,17.8-16.8,4.6-7.6,11.2-11.4,20.1-13.9,10.2-2.8,17.5-10.5,24.2-18.7,13-16,32.4-22.1,51.3-28.8,8.1,3.4,10.6-6.2,17.8-6,3.4,2.6,7,5.4,10.6,8.3,8.5-.8,9.4-10.6,16.5-13.5,5.8-2.4,10.9-6.3,16.8-9.9,11.7-3,26.1,1.8,37.2-6.6,2.7-2,8.4-.7,12.7-.2,15.5,1.8,31,3.8,46.4,6.1,5.5.8,11,2.4,16.2,4.6,6.3,2.6,12.7,5.6,18.3,9.6,33.2,23.7,69.6,41,104.5,61.2,53,30.7,104.7,63.8,154.2,100.6,18.6,13.8,36.2,29.2,53.9,44.3,62.1,52.9,121.1,109,179.4,166.1,39.1,38.3,80.2,74.5,120.6,111.4,17.2,15.7,34.5,31.3,52.1,46.6,36.9,32.1,73.9,64,110.9,95.9,28.2,24.3,56.4,48.7,84.6,73,36.1,31.2,72.3,62.3,108.2,93.7,35,30.7,69.7,61.7,104.6,92.5,24.4,21.6,49.1,42.8,73.5,64.5,60,53.4,119.8,107.1,179.9,160.4,62.7,55.6,125.7,110.8,188.4,166.5,44.4,39.5,88.5,79.2,132.4,119.2,61.1,55.6,122.5,111,182.8,167.6,46.7,43.8,91.9,89.3,137.5,134.2,31.5,31.1,62.9,62.3,94,93.8,22.8,23.2,46.1,45.9,67.9,70.1,17.8,19.9,37.9,37.8,56.5,57,19.4,20.1,38.4,40.6,57.4,61.1,11.1,11.9,22.2,23.8,33,35.9,16.2,18.2,33.4,35.7,47.9,55.1,38,50.9,37.5,51.2,71.8,83.6,4.2,4,9.8,7.4,12.2,12.2,13.3,26.3,36.5,44.8,54.4,67.4,3.6,4.5,6.8,9.3,9.9,14.2,4.8,7.6,5.3,10.2,6.4,25.8,9.7,9.4,20.6,17.6,32.7,24.6,3.1,1.8,4.6,7.5,6.2,11.6,1.2,3.2-2.6,6.6-6,5.3-4.2-1.6-8.1-3.9-12.2-5.6-.8-.3-2.3.2-2.9.8-.7.6-1.2,2.2-.9,2.9,6.2,11.6,13.1,21.8,28.5,19.7,3.5-.5,9.2,2.4,11.8,5.5,17.2,20.3,36.5,38.8,55.2,58-4.5,4.5-8.3.7-11.2-1.2-12.9-8-24.2-17.8-34.2-29.5-4.5-5.2-10-9.7-15.3-14.1-2.3-1.9-4.4-1-4.7,1.1-.1,1-.3,2.4.3,3.1,4.6,5.2,9.7,10,14.1,15.4,2.8,3.5,5.2,7.6,6.6,11.7,1.5,4.4,2.2,9,7.1,11,9.8,4.2,13.4,16.2,24,19.4,1.8.5,4.2,3,4.5,4.7,4.3,20.7,22.1,31.9,35.6,45.5,37.7,38,75.1,76.4,111.5,115.6,6.3,6.8,13.9,12.6,19.8,19.7,5.1,6.1,8.3,13.7,12.8,20.3,3.8,5.6,12.6,6.1,14.7,13.6.3,1-2.2,2.4-4.1,4.3-13.2-13.1-25.3-27-34.2-40.5-6.3-4.5-10.5-2.3-14.8-2.6-3.2-.2-6.5-1.6-11-2.8-2.2,2.6-4.9,5.7-8,9.4-7.9-6-16-12.1-23.9-18.2-1.4,1.8-2.8,2.7-2.6,3.3,1.5,4.2,3.3,8.4,5,12.6-10.9,5.8-12.7,5.9-15.4-1.5-2.8-7.6-7.5-11.1-14.2-13.5-4.3-1.5-8.9-2.3-12.7-4.6-3.7-2.3-7.1-5.8-6.1-10.9,3.4-2.9,12.1,3,11.5-6-.3-5.7-4.8-6.8-9.3-7.9-2.1-.5-4-2-6-3.1.6-4.9,5-9.1,1-14.7-.6-.8-1.6-1.4-2.6-1.7-.5-.1-1.8.7-1.7.9,1.3,5.2,2.8,10.4,4.3,15.6-9.6-2.9-19.2-5.4-28.6-8.9-4-1.5-8.6-4.2-11.1-7.6-9.8-13.5-23.6-21.6-38.3-31.2-8.7,1-16.5,6.6-26.3,9.4-2.4-1.2-5.8-2.1-8.3-4.1-6.2-5.1-12-10.7-18-16.2.2-1,.7-2.6.4-2.8-1.5-.8-3.1-1.3-4.7-1.9v-.8c1.7,1.8,3.5,3.7,5.2,5.5-.1,3.1-1.7,7.5-.1,9.2,8.9,10.2,17.3,21.6,31.9,23.7,5.2-1.2,10.4-2.4,15.6-3.7v-.8c-4.9,5.4-9.6,10.8-14.8,16.8,1.8,2.8,3.4,5.7,5.5,8.2,6,7.3,16.4,7.6,22.4,15.6,4.8,6.4,11.1,11.8,16.2,18.1,4.8,5.9,13.6,8.7,14.7,17.6-6.6,4-12.6-1-18.8-2.8-5.4-1.6-10.8-2.6-17.6-4.2-7.9-10.3-14.1-23.1-24.9-32-7.1-5.8-14.5-11.3-22.1-16.5-1.2-.8-4.5-.1-5.4,1-.9,1.3-.9,4.7.2,5.8,14.7,14.6,29.5,29,43.1,44.8,7.3,8.5,18,14.2,27,21.4,1.3,1,1.7,3.5,2.1,5.4.4,2-6.1,3.2-8.6,1.5-1.9-1.3-3.8-2.7-5.5-4.2-2.6-2.4-5-4.9-7.5-7.5-7.4-4.5-11.4,4.4-18.1,3.2-5.5-1-11-1.8-16.5-2.7,1.5-2.4,3.7-4.6,4.5-7.3,1-3.5-3.3-7.6-5.5-5.7-1.3,1.1-2.9,3.4-2.5,4.7.9,2.9,3,5.6,4.6,8.4-12.7,6.7-12.8,19.5-13.1,32.3l1.2-.3c-5.9-2.5-6.3.5-5.2,5.1v-1c-8.6,5.2-16.8,0-25-3.3-2.5,3.1-1.6,7.1,1,8.8,10.4,6.9,21,13.3,33.3,15.7,5.3,1,10.7,3,15.7,5.6,4.4,2.2,6.7,6.2,3,10.4-4.6,5.2,1.2,10.2.9,15,6.7,3.7,12.5-3.3,19.1,1.7,4.8,7.1,10.8,14.1,10.3,23.7-.2,4.5-3.4,8-8,6.9-5.3-1.3-11.1-1.8-15.8-4.5-10.8-6.3-20.9-13.9-31.7-20.4-4.5-2.8-9.9-4-14.9-5.9-1.9,6.4,3.2,8.5,5.8,11.9v-.9c-2.1.3-4.3,1.5-6,.9-7.3-2.8-14.4-6.1-21.7-9.4-2.9-5.7-5.9-11.7-8.3-16.4-6.2-4.1-14.6,6-16.7-6.7l-26.9-26.9c1.5-3.6-6.8.3-2.4,1,.2,0,.2,1.9.4,2.9,1.2,4.1-.8,6-4.3,6.5-4.5.7-8.7-.8-12.2-4.4-9.6-9.9-17.9-6.9-25.9-.2v-.8c3.5,15.3,7,30.5,10.7,47,8.7,9.1,18.2,19.3,30.4,26.3,3,1.7,5.7,4,8.3,6.3,41.4,35.6,82.8,71.1,124.1,106.8,7.8,6.8,14.3,15.4,22.6,21.3,8.4,6.1,16.6,12.2,24.7,18.8,10.6,8.6,22.9,15.1,33.2,21.7,4.6,8.3-6.5,15.1,2.9,22-.4.8-.7,1.6-1.1,2.4-9.7-6.1-19.7-11.9-29.1-18.5-8.5-6-17.4-11.9-24.3-19.6-8.8-9.7-18.9-16.8-29.8-23.4-5-3-10.1-6.3-12-12-3.4-10.6-9.9-6.1-16.1-5.3,2.5,8.2,9.2,13.7,15.4,17.3,14.6,8.6,25.5,20.4,33.6,34.5,7.3,12.6,17,18.1,28.9,16.8,6,7.7,13.7,12,13.4,21.8-7.4-3.2-14.4-6.7-21.6-9.2-8.1-2.8-12.5-10.3-19-14.5-13.6-8.8-28.3-15.1-44.1-17.3h.9l.2.6ZM1334.6,1756.8c-.6,2.9-1.1,5.8-1.7,8.8-.8,1.9-2.9,4.3-2.2,5.6,8.6,16.7,23.5,32.9,44.1,48.7,1.4-4.5-5.2-10.9,1.4-14.1,4.3-2.1,8.2.9,11.8,3.9,2.4,2,5,5,8.2.6.2-9.3-9-17.3-7.3-27.3-7-.9-13.4-1.7-19.6-2.5-2.7,4-5,7.2-7.2,10.5-5.3-.2-10.9,0-13.2-8,3.3-3.3,7.2-6.7,10.3-10.6.9-1.2.6-4.4-.4-6s-4.8-3.5-5.3-3.1c-6.3,5.5-13.9,3.3-21.3,2.2.7-3.2,1.4-6.3,2.2-9.5l-1.2-1.1,1.5,1.9h-.1ZM2156.2,1724.4c-2.3-1.9-3.2-1.9-2.4,0,.8-.3,1.6-.6,2.4-.9,2.4,1.6,3.1,1.5,2.1-.2-.7.4-1.4.8-2.1,1.2h0ZM2337.8,1871.1l-1.6-1.6.9,1c.9-.5,1.7-.9,2.6-1.4-.6.6-1.3,1.3-1.9,1.9h0ZM3272.8,3296.1v1.4l-1-1.4c2.2-1.5,4.3-3.1,6.5-4.6,2.1.7,4.1,1.5,6.2,1.9,1,.2,2.2,0,3-.5.6-.4.8-1.4,1.2-2.2-1.8-.6-3.8-1.8-5.3-1.5-1.9.4-3.3,2.1-4.9,3.3-2.4-2.1-4.9-4.1-7.3-6.2,4.4-2.9,8.9-5.7,8.3-12.5-6.3-7.8-16.6-6.1-24-11.9-3.5-2.8,1.9-1.3-1.4.8,1.3,5.3,2.6,10.5,3.9,15.9,5.8.2,10.9,2.2,14.3,7.7.2,3.3.4,6.5.6,9.8h-.1ZM3381.7,3199.7c-3.5-.3-6.9-.5-10.4-.8-2.4-1.4-4.7-2.8-7.1-4.1.3.8.6,2.1,1,2.2,2,.5,4,.7,6.1,1,3.4.3,6.9.6,10.3.8v.9h0ZM3363.3,3164.5c7.2-2.6,11.2-8.5,15.5-14.1,8.2-1.5,10.2-6.1,5.5-11.7-5.6-6.6-12.5-8.8-20.3-9.3-1.6-1.2-3.2-2.3-5.4-4,2.2,1.4,3.7,2.3,5.1,3.2,10,4.6,14.6,12.4,15.2,22.7-9.6-.7-14.6,3.6-14.7,13.2,1.5,1.1-.7,4.8,3.1,4.3-1.4-1.4-2.7-2.9-4.1-4.3h0ZM3430,3051.6c-3.4-2.6-6.7-3-9.9-.4-9.9-8.5-21-12.5-33.3-12.4-.7,0-1.7,1.1-1.9,1.9-.2.9.2,2.6.8,3,11,6.4,22.3,10.8,34.3,6.6,3.4,2.4,6.7,2.6,9.9.5,2.4,2.3,4.6,4.8,7.2,6.6,1.1.8,3.1.3,4.7.4-1-1.7-1.7-4.3-3-4.8-2.8-1-5.9-.9-8.9-1.3h0ZM2532.5,2118.1c2.9-3.1,5.9-6.1,8.8-9.2,3.4.3,6.8.6,10.2.9,5.4,7.5,6,13.7-1.8,19.1-2.7,1.9-.2,6.1,2.5,7.8,2.6,1.7,6.2,3.4,8.9,3,9.3-1.3,18.3-4.3,27.7-5,4.5-.4,7.1,4.3,6.5,9.3-1.9.4-3.8.7-5.5,1.2-.4.1-.4,1.3-.6,1.9,2-1.4,4.1-2.7,6.1-4.1,7.2,2.5,14.7,6.6,20.6-.8-.8-9.2-4.8-17-12-23.3-8-7-16.3-12.6-26.9-9.1-8.1,2.7-16.7,2.1-25.4.9-3.4-.3-6.8-.6-10.2-.9-3-1.4-6-3.4-9.1-4.1-1.8-.4-4.8.5-5.5,1.9-.7,1.2.6,4.1,1.8,5.8,1.2,1.8,3.2,3.2,4.9,4.8v2.1c-.3-.7-.6-1.5-.9-2.2h-.1ZM1432.5,1873.7c3.5,2.9,6.9,6.1,10.5,8.7,2.7,2,7.6.3,7.6-2.5s-.5-4.6-1.8-6.1c-4.7-5.4-6.9-5.1-16.3.9-.4-9.5-4.7-17.3-12.5-23.5-6.2-4.9-9.8-5.8-24.7-6.4,8.4,10.8,16.7,20.3,27.5,27.2,2.5,1.6,6.3,1.1,9.6,1.5v.2ZM2219.8,1830.7h-.9c5.2,0,8.4-3.7,6.3-7.5-4.7-8.6-4.2-15.8.4-22.9,3.4,7.3,9.2,11.9,16.5,15.1,1.9-4.6-1.3-8-4.6-10-3.5-2.2-7.9-2.8-11.9-4.2-15.7-14.6-35-25.3-46.9-44-2.5-4-6.7-2-11.1,5.1l-1.9-.7,1.9-.2c.5,5.4,1,10.7,1.4,15.4,11,5.1,17.8,11.9,20.5,20.3-2.1,0-4.4-.3-6.4,0-1.9.3-4.4.9-5.1,2.2-.7,1.5-.4,5,.7,6,10.5,8.9,21,17.6,32,25.7,1.9,1.4,6.1-.3,9.2-.6v.2ZM2338.5,1906.3c-3.5,1.5-8.7.9-8.7,6.7,4.2,5.5,9.4,12.6,15.5,12.6s11.3,7,17.1,9.7c10,4.7,10.5,17.3,19,23.2,15.5,1.5,21,5.1,23,14.9.8,3.9-5.4,6.6-.2,11.7,5.9-.3,13.2-2,18.1,4.1,4.6,5.7,9.3,9.4,16.4,10.7,3.1.6,5.4,4.6,4.4,8.1-2,6.6-.9,13.1,2.3,19.2,1.3,2.5,5,5.6,7.5,5.8,6.2.5,12.3-3.5,19.8-10.6-3.5-6.7-10.7.9-14.4-5.1,6.2-13.3,6.1-17,1.1-24-3.7-5-8.5-7.8-14-9.4-6.4-1.8-13.5-1-18.2-7.6v.9c6.4-.7,12.9-.6,18.9-2.2,6.8-1.9,14.6,6.2,21,.4-9.9-19.9-10.9-20.3-33.4-13.4-15-6.4-24.3-20.6-36.6-29.4-6.2-.9-11.5-1.6-16.9-2.4-4.1-10.9-11.6-19.4-18.9-28.7-4.2-1-8.5-2.2-12.8-3.1-7-1.4-9.6,2.4-10,8.6v-.9.2ZM2530.8,2063.5c16.2-4.5,28.5,3.5,40.2,13.3,6.2,5.2,12.1,10.6,18.1,16,2.6,2.3,4.9,4.9,7.7,6.7.9.6,3.2-.9,4.5-1.9.5-.4.4-2.3-.1-3.1-5.4-9-18-9.9-22.3-20.6-3.1-7.6-9.9-12.3-15.8-17.8-13.6-12.6-28.2-23.5-44.2-32.5-2.4-1.4-4.9-4.3-7.5-.9.7,7.3,7.2,11.5,10.3,17.4,3.1,6,4.9,12.5,9.1,23.4h0ZM3475.1,3072.5c-.2-4.5-.8-8.6-5-11.2-4.9-3-10.2-5-13.6-10.1-2.5-3.8-1.3-10.7,2.7-14.7s7.6-1.8,11.4,2.4c3.7,4.1,5.4,10.6,12,11.3,1.8.2,4.4-.6,5.3-2,.9-1.3.5-5.4-.2-5.7-13-5.5-21.3-16.8-31.8-25.4-2.5-2-5.5-8.2-10.5-4.1,4.9,10.4,4.5,12.3-2,16-3.1,1.8-9.1-.8-9.2,5.5,1.4,1.9,2.7,3.8,4.1,5.7,1.4,1.8,2.6,3.9,4.3,5.4,9.2,8.7,18.5,17.3,27.8,25.8.6.6,1.8.4,4.6,1h0ZM2411.8,1911.8c-2.3-6.1-7.8-8.6-12.1-12.3-4.3-3.7-8.6-7.7-13.4-10.3-5.8-3-8-7.6-10.1-13-.7-1.9-2.8-3.8-4.6-4.8s-4.5-1.6-6.1-.9c-5.5,2.2-7.2,7.8-6.9,13.1.4,5.2,2.9,12.9,8.3,13.7,10.5,1.6,18.2,5.8,25.5,14,3,3.4,10.2,3.3,15.6,4.1,1.2.2,2.6-2.4,3.8-3.6h0ZM1238.1,1673.7c-10.6-6.7-22.1-14.2-33.8-21.3-.9-.5-4.1,1.3-4.8,2.8-.7,1.4-.3,4.8.9,5.8,9.6,8.3,19.5,16.3,29.4,24.2,1.6,1.3,4.1,1.5,6.3,2,1,.2,2.7,0,3.1-.5,1-1.6,2.1-3.6,2-5.5,0-2-1.6-4.1-3.1-7.5ZM3408.3,3146c-1.1,0-2.3-.3-3.2,0-11.4,5-15,15.8-18.2,26.8-1.2,4.1-1.1-1.2,2.1,2.3,5.2,1.1,6.7-3.7,9.8-5.8,4.3-3,10.7,3.7,15-2.9-.5-4.4-.8-9.8-1.7-15.1-.4-1.9-2.4-3.6-3.7-5.4h-.1ZM2630,2160c5.8,10.1,15.1,17.2,23.8,24.7,3.6,3.1,8.2,3.6,10.7-2.1-7.8-7.8-15.8-15.8-23.8-23.7-.8-.8-1.9-1.3-2.9-1.6-3.3-1-6.5-1.4-7.7,2.7h-.1ZM2666.7,2161.5c4-10.5-10.4-16.2-6-24.9-7-2-14-5.7-21.9-2.2,8.7,9.8,17.4,18.5,27.9,27.2h0ZM2037.2,1656.6c-2.5,3.4-5.7,7.3-8.2,11.8-.6,1,1.2,4.3,2.6,5.4,1.5,1.2,5.1,2.2,5.9,1.4,3.4-3.5,6.2-7.6,8.8-11.1-1.7-4.3-3.9-6.7-9.2-7.5h0ZM2150.6,1742.6c-6.1-6.1-12-12.3-18.3-18.1-1.5-1.4-4.1-2.2-6-2-1.6,0-4,1.8-4.1,3.2-.3,4.3-3.4-.2,0,3,7.1,6.9,15.3,12.2,23.6,17.3.7.4,2.8-1.8,4.9-3.3h0ZM2542.8,2148.5c-.4,2.2-.9,3.4-.6,3.8,7,7.2,14,14.4,21.2,21.4,2.2,2.2,8.3,1.6,8.2-.6-.1-2-.6-4.3-1.7-6.1-1.1-1.9-2.9-3.6-4.7-4.8-7.3-4.6-14.7-9-22.5-13.7h.1ZM2627.4,2178c-7.7-12-15.6-18-26.1-19.6-1.5-.2-3.2,1.8-4.5,3.1s-.3,2.5.4,3.1c7.2,8.1,15.7,13.2,30.2,13.4h0ZM2642.4,2201.3c0,1.1-.4,2.7.1,3.1,6.8,5.9,15.3,7.8,23.2,11,.8.3,1.8,0,2.7-.2-.4-1-.5-2.5-1.2-2.9-7.4-4.4-14.9-8.7-22.4-12.9-.4-.2-1.6,1.1-2.4,1.8h0ZM2496.1,2039.1c3.8,10.4,6.2,12.7,13.2,13.1,4.1.3,7.3-3.6,7-8.4-.3-4.8-4.3-9.1-8.5-8.4-4.1.7-7.8,2.4-11.7,3.7h0ZM3366.4,3377.8c.9,6.4,7.1,8.2,11.2,11.1,5.3,3.8,5.2,12.7,12.8,13.3,3.4-2.6,2.9-6.9.8-8.8-5.9-5.3-12.6-9.6-18.9-14.6-2.2-1.7-3.8-2.5-6-1.1h0ZM1301.3,1701.7c-8.2-9.6-14.2-16.6-19.7-23-4.1.2-5.6,1.7-4.6,4.1,3.5,8.8,11,14.3,17.8,20.3.5.4,2-.4,6.6-1.4h-.1ZM2410,2030.7c8.9,7.6,13.9,11.8,18.7,16.1,2.1,1.9,4.4,2.1,5-.3.4-1.5-1-4.3-2.4-5.4-5.1-3.8-9.4-9.3-21.4-10.4h0ZM2684.8,2206.3c1.7,1.4,3.4,3,5.2,4.3.8.5,2.7.8,2.8.5.7-1.8,2.1-4.2,1.4-5.5-1.5-2.8-4-5.4-6.6-7.3-1.4-1-4-.1-6,0,.4,1.8.6,3.6,1.2,5.4.3,1,1.3,1.8,2,2.7h0ZM2701.7,2179.4c-2.2-.8-5.1-2.4-8.1-2.8-1.8-.2-4.4,1.1-5.1,2.6-.7,1.5-.1,4.5,1,6,1.9,2.5,4.5,5,7.2,6.5,3.1,1.6,6.5.6,7.9-2.3.7-1.5-.2-4.1-.7-6.2-.2-1-1.1-1.9-2.2-3.7h0ZM2903.3,3152.4c-11-17.1-11.1-17-19.5-19,3.3,7.5,9.2,12.5,19.5,19ZM2191.5,1834.9c-3.3-9.4-9.6-13.4-18.4-17.7,4.8,8.4,9.6,14.2,18.4,17.7ZM1822.8,1495.7c3.3.4,6.2.9,9.1.9s2-.9,2.3-1.7c1.5-5-6.2-13.5-11.6-12.6-1.3.2-3,2.8-2.8,4.2.3,2.9,1.8,5.7,3.1,9.2h0ZM2312.1,1896.6c-3.2-.3-6.4-.7-9.5-.7s-2.2,1.6-2,2.2c.6,1.9,1.3,4.3,2.7,5.3,3,2,6.5,2,8.7-.5.9-1,0-3.6,0-6.2h.1ZM2602.1,2184.3c.4-.4.8-.7,1.3-1.1-3.2-4.1-6.4-8.2-9.8-12.1-.5-.5-2.2-.6-2.9-.2-.5.3-.8,2.2-.4,2.6,3.9,3.7,7.9,7.3,11.8,10.8h0ZM2536.5,2885c-1.5-6.2-5.2-10.2-11.3-12.2,2.3,5.4,6.3,9.3,11.3,12.2ZM2937.2,3176.9c-4.1-4.1-6.4-6.5-8.9-8.8-.5-.4-1.7-.1-2.5-.2.3,2,0,5,1,5.6,2.4,1.5,5.5,1.9,10.4,3.4ZM2594.1,2190.8c-1.5-1.3-4.1-2.1-6-2-2.6.1-3.7,2.5-2.2,4.8,1.1,1.7,3.3,3.4,5.2,3.9,1.8.5,3.9-.6,5.9-.9-.9-2-1.4-4.4-2.8-5.7h0ZM3015.6,3245.3c0-1,.2-2.3-.3-3-2-2.6-4.3-5-6.6-7.4-.2-.2-2.2.5-2.1.8.3,4.5,3,7.8,6.8,10.4.4.3,1.5-.6,2.2-.9h0ZM3611.8,3156.8c-3-3.4-9-4.4-10.7-1.4-.7,1.3-.3,4.6.6,5.3,2.3,1.6,5.3,3,8,3.1,2.8.1,3.9-4.9,2.1-7h0ZM2550.3,2033.8c1.3,6.2,4.7,10.2,11.4,11.3-2.7-5.2-5.9-9.4-11.4-11.3ZM2239.8,1759.4c4.9,4.9,9.3,9.3,13.6,13.6-3.8-4.8-5.8-11.7-13.6-13.6ZM2977.4,3207.8c-1.4,4.1.9,6.7,3.5,8.6,1.6,1.2,3.9,1.2,5.9,1.8-.3-2,0-4.8-1.1-5.9-2.3-2-5.5-3.1-8.3-4.6h0ZM1168.2,1622.3c0,2-.9,4.1-.3,5.9,1.1,3.2,3.2,6.2,7.3,5,.9-.2,2.1-1.7,1.9-2.2-.7-2-1.7-4.2-3.2-5.6-1.5-1.5-3.8-2.1-5.8-3.1h0ZM3461.4,3467.5c-2.7-3.8-6.5-5.2-6.1-2.8.3,1.8,1.6,3.8,3,5,.8.8,2.7.4,4.2.5-.3-.9-.5-1.9-1.1-2.7h0ZM3423.3,2983.9c-1-.4-2.2-1.5-2.8-1.2-2,.9-1.6,2.6,1.2,4.2.7.4,1.8,0,2.7,0-.3-1-.7-2-1-3h0ZM3342.9,3333.9c-.4.8-1.3,2.1-1,2.4,1.2,1.6,2.7,3.8,4.3,4.2,2.5.6,3.6-1.6,1.9-3.9-1-1.4-3.5-1.9-5.3-2.7h.1ZM3579,3123c.2.9,0,2.2.5,2.8,2.3,2.6,3.7,2.1,3.6-1.2,0-.8-.8-2.2-1.5-2.4-.7-.3-1.7.5-2.6.8h0ZM1844.6,1485.5c-.9-.2-2.2-.9-2.7-.6-1.6,1.2-1.1,2.9,1.3,4.2.8.5,2.2,1,2.7.6,1.6-1.2,1.1-2.8-1.2-4.3h-.1ZM2564.4,2207.8c0-.8.2-1.8-.2-2.5-.4-.9-1.3-1.9-2.1-2.2-1.3-.5-2.8-.6-4.2-.8.5.9.7,2.1,1.4,2.6,1.6,1.2,3.4,2,5.1,2.9ZM2449.5,2812.8c1.8,0,3.6.2,5.4.3-.2-.9-.4-2.6-.7-2.7-1.7-.4-3.4-.3-5.2-.4.2.9.4,1.8.5,2.8h0ZM2174.4,1737.7c1.4,1.1,2.8,2.3,4.2,3.4-.2-.9,0-1.9-.5-2.6s-1.3-1.4-2.2-1.7c-.4-.2-1,.6-1.5.9h0ZM1516.6,1926c-.3.6-.9,1.3-.8,1.7.3.9.9,2.1,1.6,2.3,2.6.9,3.3-.3,1.6-2.7-.5-.7-1.6-.9-2.5-1.3h.1ZM2190,1734.8c-.4.6-1.2,1.3-1,1.8.2.8.9,2,1.6,2.2,2.5.8,3.3-.3,1.8-2.7-.4-.6-1.6-.8-2.4-1.3h0ZM2270.1,1787.8l.5,2.3,1.6-.8-2.1-1.5ZM2387.2,2165.5l2.7,1.2-1.4-2.6-1.3,1.4h0ZM3352.7,2899.4l2.8,1.4-1.5-2.8-1.3,1.3h0ZM3099.2,3213.9c-.4-.8-.7-1.6-1.3-2.2-.2-.2-1.1.4-1.7.6.4.7.7,1.6,1.3,2.2.2.2,1.1-.3,1.7-.5h0ZM3381.6,2981.5l1.1-.8-2-1.3.9,2.1ZM3492.4,3083.3c0,.7-.2,1.7.1,2.2.4.5,1.4.7,2.1,1,0-.8.2-1.7-.2-2.2-.4-.6-1.4-.7-2.1-1h0ZM3564.2,3108.5c-.6-.8-1.1-1.9-1.8-2.2-2.6-1-3.3.1-1.7,2.7.4.7,1.6,1.2,2.4,1.3.4,0,.7-1.1,1.1-1.7h0ZM1284.2,1713.2c.4.8.7,2,1.4,2.4,2.7,1.9,3.7,1.1,2.3-1.8-.3-.7-1.4-1.3-2.3-1.6-.3,0-.9.7-1.4,1ZM3352.8,3360.8h-1.8c0,.1,1,1.6,1,1.6l.8-1.6Z"/>
    <path class="st0" d="M3355,3317.7c1.9-6.9,3.3-12.1,8.6-15.6,11.5,6.7,23.9,12.6,34.8,20.7,9,6.7,16.3,15.8,24,23.5-3.4,7.3-4.8,13.1,2.2,18.5,3.1,2.4,5.4,3.2,7.5-.5,2-3.4,5.7-3.3,7.9-.4,5.6,7.4,10.3,14.7,20.5,17,10.8,2.4,16.1,12.4,22.2,20.5-.4,2.4-.3,4.6-1,6.4-3,7.4-7,9.3-11.8,5.6-9.2-7-18.2-14.2-27.1-21.7-8-6.7-15.2-14.4-23.6-20.6-9.9-7.3-16.6-17.9-28.8-23.4-11-5-20.1-15.3-29.9-23.4-1.7-1.4-2.8-3.5-5.5-6.9v.3Z"/>
    <path class="st0" d="M1569.4,2027.6c-4.4-4.4-9.7-8.9-13.9-14.2-3.8-4.7-3.7-10.2-1.2-15.2,1.3-2.5,6.4-3.2,8.4-1.1,1.5,1.7,3.4,3.1,4.6,5,8.8,13.3,18,25.9,32,34.7,5.3,3.3,10.5,8.9,10.9,16.3,0,2.6-.9,4-3.7,3.7-2.1-.2-4.5-.3-6.3-1.4-11.5-7.5-22.3-15.9-30.8-27.8h0Z"/>
    <path class="st0" d="M3471.9,3373.6c23.9-1.9,38,13.8,50.8,31.8-1.9,4.6-5.8,2.2-7.3.2-7.9-10.5-17.2-17-30.3-18.7-6.3-.8-12-5.7-13.2-13.3Z"/>
    <path class="st0" d="M3505.4,3330.2l10.3-10.3c6.4,2.5,9.7,7,12.7,11.7.2,1.2.7,2.4.5,3.3-1.7,7-2.5,14.6-9.6,18.1-3.5,1.7-8.9-6.3-11.9-17.3-.6-2.1-1.3-4.2-1.9-6.4v.9h-.1Z"/>
    <path class="st0" d="M3449.8,3356.4c-5.8.7-10.6-1.7-14.6-6.2-2.2-2.5-4.7-7.3-2.3-8.2,8-3.1,7.2-12.1,12.2-16.9,2.3-2.2,5.8-2.3,8.7,0,1.6,1.3,3.7,3.8,3.6,5.4-.6,7.1-1.9,14.1-2.9,21.2l.8.2-5.2,5.2-.2-.8h-.1Z"/>
    <path class="st0" d="M3477.8,3252.2c6.4,1.3,12.8,2.5,19.7,3.9,1.3,4.7,2.9,8.9,3.5,13.1.3,1.8-1.1,4.3-2.6,5.1-1.1.6-4.4-.5-5.3-1.7-2.5-3.7-4-8-6.5-11.7-2.5-3.6-5.9-6.6-8.8-9.8v1.1h0Z"/>
    <path class="st0" d="M3419.1,3219.3c5.2.5,10.6.4,15.7,1.7,2.7.7,5.1,3.8,7.4,6,.6.6.7,2,.6,2.8-.2.9-1.2,2.3-1.5,2.2-8.6-3.6-18.6-1.7-26.3-8.8v1c1.9-1.7,3.6-3.4,5.3-5.1l-1.2.3h0Z"/>
    <path class="st0" d="M3507.3,3221.4c-4.6,0-7.8-2.8-10.6-6.2-2.3-2.8-2.9-5.8-.3-8.1,2.5-2.1,5.8-1.8,8.3.6,4.3,4.1,6,8.8,2.6,13.7Z"/>
    <path class="st0" d="M3338.3,3280.1c-7.4,5.3-13.9,4-19.5-4.6,7.1.3,13.6,2.1,19.5,5.4v-.9h0Z"/>
    <path class="st0" d="M3197.3,3403.9c-.7-1.7-2.4-4.6-2-5,3.1-2.5,6.6-4.6,10.1-6.6.5-.3,2.1.7,2.8,1.4s1.5,2.3,1.2,2.9c-2.8,5.7-7.7,8.5-12.1,7.3h0Z"/>
    <path class="st0" d="M3577.2,3480.3l-10.8-10.8c6.5,2.5,9.5,5.6,10.8,10.8Z"/>
    <path class="st0" d="M3533.1,3194.8c-1.2,1.4-2.1,3.7-3.6,3.9-1.6.3-4.2-.9-5.6-2.3-1.9-2-1.3-4.2.9-5.1,3.4-1.4,7.3.4,8.3,3.4h0Z"/>
    <path class="st0" d="M3575.7,3523.4c-1.7.5-3.8,1.8-5.1,1.2-1.2-.6-2.4-3.3-2.3-4.9.3-2.4,2.7-3.1,4.6-1.5,1.4,1.1,1.9,3.4,2.7,5.2h.1Z"/>
    <path class="st0" d="M3525.2,3002c.3,1,1.2,2.1.9,2.9-.7,2.5-2.4,2.5-4.1,0-.4-.6,0-2.1.6-2.7.5-.5,1.7-.2,2.6-.3h0Z"/>
    <path class="st0" d="M3471.4,3109.6c2.2,2.5,4.4,4.9,6.4,7.6.5.7.5,2.5,0,2.9-1.9,1.6-4.4,1-5.1-1.5-.8-2.9-.3-5.9-.4-8.9h-.9Z"/>
    <path class="st0" d="M3468.9,3222.8c-.7.6-1.3,1.7-2,1.7-3,0-4.1-1.6-2.7-3.7.4-.6,2-.7,2.9-.4.8.3,1.3,1.5,1.9,2.4h0Z"/>
    <path class="st0" d="M3477.8,3251.2c-4.3,0-8.5-.2-9.6-6,4.6.3,7.2,3.6,9.6,7.1v-1.1Z"/>
    <path class="st0" d="M3488.9,3324.9c.9,2.6.2,4.5-2.4,4.7-1.8,0-3.7-1.1-5.6-1.7.8-1.6,1.3-4.1,2.6-4.6,1.4-.5,3.6,1,5.4,1.6Z"/>
    <path class="st0" d="M3512.9,3425.5c.5-.4,1.3-1.3,1.5-1.1,1.6,1,3.7,2,4.5,3.5,1.5,2.8.2,3.7-2.6,2.1-.8-.5-1.7-1.2-2.3-1.9s-.8-1.7-1.1-2.6h0Z"/>
    <path class="st0" d="M3549.9,3425c1.8,1,3.7,2,5.3,3.3.5.4.2,2,.2,3-1.8-1.1-3.8-2-5.4-3.3-.5-.4-.2-2-.2-3h0Z"/>
    <path class="st0" d="M3543.3,3530.2c-2.4,1.4-4.8,2.8-7.3,4-.5.2-2.5-1.2-2.5-1.3.5-1.6.7-3.9,1.9-4.5,2.9-1.3,5.7,0,7.9,2.7v-.9h0Z"/>
    <path class="st0" d="M3692.5,3390.5c-1.5-1-3.2-2-4.6-3.1-.2-.2.3-1.4.4-2.1,1.5,1,3.1,2,4.6,3.2.2.2-.3,1.3-.4,2h0Z"/>
    <path class="st0" d="M3509.9,3010.1c-.3.6-.5,1.2-.8,1.7-.7-.4-2-.9-2-1.3,0-2.2,1-2.3,2.9-.5h0Z"/>
    <path class="st0" d="M3155,3364.8c0,1.7,0,3.4.1,5.1-3.8-2.6.6-3.3.7-5.1h-.8Z"/>
    <path class="st0" d="M3178.4,3386.4c-.2,1,0,2.3-.6,2.8s-1.9.2-2.8.3c.2-1,0-2.3.6-2.8s1.9-.2,2.9-.3h0Z"/>
    <path class="st0" d="M3196.6,3372.7c.2,1,.5,1.9.7,2.9-.9-.4-2.1-.6-2.7-1.3-.6-.7-.5-1.8-.7-2.8.9.4,1.8.8,2.8,1.2h-.1Z"/>
    <path class="st0" d="M3472.3,3109.7c-4.1-4-8.2-8.1-12.4-12.1v.8c5.4,2.2,10.2,5,11.5,11.3h.9Z"/>
    <path class="st0" d="M3341.6,3300.5c.7.3,1.3.7,2,1-.4.8-.8,2.2-1.2,2.1-2.4-.2-2.7-1.4-.8-3.2h0Z"/>
    <path class="st0" d="M3469.4,3263.8c.9.4,2.1.7,2.6,1.3,1.6,2.6.9,3.8-1.8,2.9-.7-.2-1.5-1.5-1.8-2.3-.2-.5.7-1.3,1-1.9Z"/>
    <path class="st0" d="M3521.9,3234.2c.4.9,1.3,2.1,1.1,2.6-.9,1.7-2.6,1.3-4.1-1-.4-.6.2-1.6.3-2.5.9.3,1.8.6,2.7.9Z"/>
    <path class="st0" d="M3517.9,3304.4c.9.4,2.2.6,2.7,1.2.5.6.3,1.8.4,2.8-.9-.4-2.2-.5-2.7-1.2s-.3-1.9-.5-2.8h.1Z"/>
    <polygon class="st0" points="3481.3 3356.7 3479.3 3355.4 3480.7 3354.4 3481.3 3356.7"/>
    <path class="st0" d="M3505.5,3329.3c-1.9,1.4-3.8,2.8-3.5,2.6-.6.3,1.4-.7,3.4-1.7v-.9h.1Z"/>
    <polygon class="st0" points="3539.9 3308.7 3537.3 3307.2 3539.1 3305.9 3539.9 3308.7"/>
    <path class="st0" d="M3436.1,3477.7c2.3,1.7,5.5,2.9,5.2,6.6-.8-.2-2.2-.2-2.3-.6-.8-1.9-1.3-4-1.9-6h-1Z"/>
    <polygon class="st0" points="3569.1 3380.4 3570.1 3378.3 3571.4 3380 3569.1 3380.4"/>
    <polygon class="st0" points="3532.3 3442.3 3534.5 3443.8 3532.9 3444.7 3532.3 3442.3"/>
    <polygon class="st0" points="3639.1 3343.5 3640.1 3345.9 3637.7 3344.6 3639.1 3343.5"/>
    <polygon class="st0" points="3338.4 3281 3340.7 3280.8 3338.3 3280.1 3338.4 3281"/>
    <path class="st0" d="M3155.9,3364.8c-2.5-1.2-3.5-5-2.2-5,6.6,0,3.4,2.8,1.4,5h.8Z"/>
    <path class="st0" d="M3543.4,3531.1v-.9.9Z"/>
    <path class="st0" d="M3408.8,3466.8c.4,1,.9,1.9,1.3,2.9-2.1.6-2.2-.3-.3-2.8h-1Z"/>
    <path class="st0" d="M3454.5,3351.7c.3,3.4-1.1,5.1-4.7,4.7l.2.8,5.2-5.2-.8-.2h.1Z"/>
    <path class="st0" d="M3408.9,3288.5v-.9.9Z"/>
    <path class="st0" d="M2405.1,1951.4c-1.6-.9-3.8-1.4-4.8-2.7-1.5-2.2-.5-3.9,1.9-3.8.9,0,2.4.8,2.6,1.4.4,1.7.3,3.4.3,5.1Z"/>
    <path class="st0" d="M2427.2,1976.5c-.6.3-1.3.5-1.9.8h2v-.9h-.1Z"/>
    <path class="st0" d="M2338.5,1907.2v-.9.9Z"/>
    <path class="st0" d="M2219.8,1830.7c-4.5-4.7-9.1-9.4-13.5-14.2-.3-.3,0-1.8.5-2.1.8-.4,2.1-.6,2.8-.2,1.8,1.2,4.1,2.4,4.9,4.2,1.9,3.9,3,8.1,4.4,12.1h.9v.2Z"/>
  </g>
</svg>