<?xml version="1.0" encoding="UTF-8"?>
<svg id="Laag_1" xmlns="http://www.w3.org/2000/svg" xmlns:xlink="http://www.w3.org/1999/xlink" version="1.1" viewBox="0 0 141 128.8">
  <!-- Generator: Adobe Illustrator 29.1.0, SVG Export Plug-In . SVG Version: 2.1.0 Build 142)  -->
  <defs>
    <style>
      .st0 {
        fill: none;
      }

      .st1 {
        fill: #fff;
      }

      .st2 {
        clip-path: url(#clippath);
      }
    </style>
    <clipPath id="clippath">
      <polygon class="st0" points="-266.4 873 313.3 873 313.3 -30.1 -266.4 -30.1 -266.4 873 -266.4 873"/>
    </clipPath>
  </defs>
  <g class="st2">
    <g>
      <path class="st1" d="M52.5,79.1c.4-.7.6-1.3.9-1.9.1,0,.3.2.5.3.2.1.4.2.6.2-.4.6-.7,1.2-1,1.8l-.5.9c-.3.6-.6,1.2-.9,1.9-.1,0-.3-.2-.5-.3-.2-.1-.4-.2-.6-.2.3-.6.6-1.1,1-1.8l.5-.9ZM56,78.5c0,0,.2.1.3.1.1,0,.2,0,.3,0,.6,1.5,1.2,2.9,1.8,4.4.4-1.1,1.1-3,1.1-3.3,0,0,.2.1.3.1.1,0,.2,0,.3,0-.8,2-1.2,2.9-1.8,4.8-.2-.1-.4-.2-.6-.2-.6-1.5-1.2-3-1.8-4.5-.2.5-.4,1.1-.6,1.6-.4,1.1-.5,1.5-.6,1.8-.1,0-.2-.1-.3-.2-.1,0-.2,0-.3,0,.1-.2.9-2,1.4-3.4.2-.6.4-1.1.5-1.4M62.3,81.8c0-.3.1-.5.1-.6-.3,0-.9-.1-1.4-.2,0-.1,0-.2.1-.3,0-.1,0-.2,0-.3.7.2,1,.2,1.9.4.9.2,1.2.2,1.9.3,0,.1,0,.2-.1.3,0,.1,0,.2,0,.3-.4-.1-1-.3-1.3-.4,0,.1,0,.4-.1.6l-.4,1.8c-.1.7-.3,1.4-.3,2-.2,0-.4-.1-.6-.2-.2,0-.4,0-.6,0,.2-.6.3-1.2.5-2,0,0,.4-1.8.4-1.8ZM65.8,83.2c0-.8.1-1.4.1-2.1.4,0,.9.1,1.3.1.7,0,1.3.1,1.6,0,0,0,0,.2,0,.3,0,.2,0,.2,0,.3-.6,0-1.4-.2-1.7-.2,0,.5-.1,1.1-.2,1.6.6,0,1.1,0,1.7,0,0,.1,0,.2,0,.3,0,0,0,.1,0,.3-.6,0-1.1-.2-1.7-.2,0,.3,0,.6,0,.9,0,.3,0,.6,0,.9.6,0,1.1,0,1.7,0,0,.1,0,.2,0,.3,0,.2,0,.2,0,.3-.3,0-.6,0-1.3-.1-1.2-.1-1.4,0-1.6,0,0-.6.2-1.2.2-2,0,0,0-1,0-1ZM71.4,84.2h0s0,.3,0,.3c0,.8,0,1.4.1,2.1-.2,0-.4,0-.6,0s-.4,0-.6,0c0-.7,0-1.2,0-2.1v-1c0-.7,0-1.4-.2-2.1.2,0,.4,0,.6,0,.3,0,.6,0,1.1,0,.8,0,1,0,1.3.2.3.2.5.6.5,1,0,.7-.4,1.2-1.1,1.4.5.8,1.1,1.7,1.7,2.5-.2,0-.4,0-.7,0-.2,0-.5,0-.7,0,0,0-1.4-2.3-1.4-2.3ZM71.3,81.8c0,.7,0,1.3,0,2,0,0,.1,0,.2,0,.7,0,1-.4,1-1.1,0-.9-.4-1-1.2-.9M75.2,83.2c-.1-.7-.2-1.4-.4-2,.2,0,.4,0,.6,0,.3,0,.7-.2,1.1-.2.7-.1,1.1,0,1.3.1.3.2.5.5.6.9.2,1.1-.5,1.7-1.6,1.9h-.4c.1.8.2,1.5.4,2.3-.2,0-.4,0-.6,0-.2,0-.4,0-.6.1,0-.7-.1-1.4-.3-2,0,0-.2-1-.2-1ZM76.4,81.4c-.1,0-.2,0-.3,0,.1.7.2,1.4.3,2.1.5,0,1.1-.3.9-1.3-.1-.7-.5-.9-.9-.9M81.6,79.6c1.5-.5,2.9,0,3.5,1.7.4,1.4-.3,2.9-1.9,3.4-1.5.5-2.9,0-3.5-1.7-.4-1.4.3-2.9,1.9-3.4M81.7,80.1c-1,.3-1.2,1.5-.8,2.7.5,1.5,1.3,1.8,2.1,1.6.9-.3,1.4-1.2.9-2.8-.4-1.2-1.3-1.8-2.2-1.5M86.3,80.2c-.3-.6-.6-1.2-1-1.8.2,0,.3-.1.6-.2.2-.1.4-.2.5-.3.2.6.5,1.1.9,1.9l.4.9c.2.5.5,1,.7,1.3.5-.2,1-.5,1.5-.8,0,.1,0,.2.1.3,0,.1.1.2.2.3-.2.1-.6.2-1.2.5-1.1.5-1.3.6-1.4.7-.2-.6-.5-1.1-.9-1.9,0,0-.4-.9-.4-.9ZM51,29.4c1.3-.7,2.7-.6,3.5.8.7,1.2.3,2.7-1,3.5-1.3.7-2.7.7-3.5-.8-.7-1.2-.3-2.7,1-3.5M51.2,29.8c-.8.5-.8,1.6-.2,2.6.8,1.3,1.6,1.4,2.3,1,.7-.4,1-1.4.2-2.7-.6-1-1.5-1.4-2.3-.9M55.5,29.4c-.3-.7-.5-1.2-.8-1.7.1,0,.3-.1.5-.2.2,0,.4-.2.5-.3.2.6.4,1.1.7,1.8l.4.9c.3.7.5,1.2.8,1.7-.1,0-.3.1-.5.2-.2,0-.4.2-.5.3-.2-.6-.4-1.1-.7-1.8l-.4-.9ZM57.8,28.4c-.2-.7-.4-1.2-.6-1.8.1,0,.3,0,.6-.1.3,0,.6-.2,1-.3.6-.2,1-.2,1.2,0,.3.1.6.4.7.8.3,1-.3,1.6-1.2,2h-.3c.2.8.4,1.4.7,2.1-.1,0-.3,0-.6.1-.2,0-.4.1-.5.2-.1-.6-.3-1.1-.5-1.8,0,0-.3-.9-.3-.9ZM58.6,26.6c0,0-.2,0-.3,0,.2.6.4,1.2.6,1.9.4-.1,1-.4.7-1.3-.2-.7-.6-.8-1-.7M65.9,28.5c0,.2,0,.4,0,.6-.3.3-.8.5-1.3.6-1.6.3-2.7-.5-2.9-1.8-.4-1.9.8-2.8,2.2-3.1.5,0,1.1,0,1.5,0,0,.2,0,.5,0,.7h0c-.4-.3-.8-.5-1.3-.4-.7.1-1.4.9-1.2,2.4.3,1.4,1.2,1.8,2,1.7.4,0,.9-.4,1.1-.7,0,0,0,0,0,0ZM75.6,26.6c.1-.8.2-1.3.2-1.9.2,0,.3,0,.6.1.2,0,.4,0,.6,0-.1.6-.2,1.3-.3,1.9v.9c-.2.6-.3,1.3-.4,1.9-.1,0-.3,0-.6-.1-.2,0-.4,0-.6,0,.1-.6.2-1.1.3-1.9,0,0,.1-.9.1-.9ZM81.2,29.9c-.1.2-.2.3-.3.5-.4,0-.9,0-1.4,0-1.6-.4-2.2-1.6-1.9-2.9.5-1.9,1.9-2.3,3.3-1.9.5.1,1,.4,1.3.7-.1.2-.3.4-.3.6h0c-.2-.5-.5-.8-1-.9-.7-.2-1.7.2-2.1,1.7-.4,1.4.3,2.1,1.1,2.3.4.1,1,0,1.3-.2,0,0,0,0,0,0ZM82.9,28.3c.3-.7.5-1.2.7-1.8.1,0,.3.2.5.2.3.1.6.2,1,.3.6.2.9.5,1,.7.2.3.2.7,0,1-.4,1-1.2,1.1-2.2.7h-.3c-.3.5-.5,1.2-.7,1.8-.1,0-.3-.2-.5-.2-.2,0-.4-.1-.5-.2.3-.6.5-1,.8-1.8,0,0,.3-.9.3-.9ZM84.7,27.4c-.1,0-.2,0-.3-.1-.2.6-.5,1.2-.7,1.8.4.2,1,.3,1.3-.6.3-.7,0-1-.3-1.1M89.9,29.3c1.3.7,1.9,2,1,3.5-.7,1.2-2.2,1.6-3.5.8-1.3-.7-1.9-2-1-3.5.7-1.2,2.2-1.6,3.6-.8M89.7,29.7c-.8-.5-1.8,0-2.4,1.1-.7,1.3-.4,2.1.3,2.5.7.4,1.7.2,2.5-1.1.6-1,.4-2-.3-2.4M63.8,34.9c.6-.7,1.9-.6,2.4-1.5-1.2.2-2.1.7-2.9,1.4,0,.1.3,0,.5,0M66,34.2c-.8.2-1.9.1-1.9,1.1.2,0,.4-.2.5,0-.3.7-1,1-1.5,1.5,0,.9-1.1,1.3-.8,2.4.7-.2.8-.8,1.6-.8.2-1.3,2.3-.9,2.8-1.8,0-.2-.3,0-.2-.2.3,0,.3-.2.6-.2.3-.8,1-1.1,1.2-2h-.5c0-.2.4,0,.3-.4-.7-.2-1.8,0-2.2.5M61.9,33.9c-.3,0-.4.2-.5.4.1,0,.1.1.2.2,0-.2.5-.3.3-.5M61.6,35.2c.3,0,.4-.2.5-.2,0-.2-.2-.2-.2-.3.4-.1.5-.6.8-.8-.6,0-.8.5-1.1.8.2.2,0,.4,0,.6M63.4,33.9c-.2-.1-.6.3-.6.7.4,0,.6-.3.6-.7M61.1,34.4c0-.1,0-.2-.2-.2,0,.2-.3,0-.3.2,0,.1.4.1.5,0M61.4,34.6c-.3,0-.4.3-.5.5.3,0,.5-.2.5-.5M78.4,35.2c.5,0,.8-.1.9-.5-.3-.1-.7.1-1,0,0,.2.1.2,0,.4M62.9,34.9c-.3-.2-.7,0-.6.5.4,0,.4-.3.6-.5M79.2,35.7c.3,0,.4,0,.6,0v-.3c-.2,0-.3.1-.5,0,0,.1,0,.2,0,.3M74.3,36c0-.3,0-.4-.3-.4,0,.2,0,.4.3.4M66.2,37.4c-.2.1-.2.3-.2.6.5.1,1.1,0,1.1-.5-.4-.2-.6.2-.8,0M68,40.2c0-.2.3-.6,0-.6-.9.5.3,1.3-.2,2.1.3,0,.6-.2.9-.3,0-.6-.6-.6-.7-1.1M67.1,40.8h-.4c0,.2-.2.4,0,.5h.3c-.1-.3.3-.4,0-.5M90.5,44c-.3-.2,0-.7-.2-.9,0,.2-.5,0-.5.2.3.1.4.9.8.8M91.4,47.4c0-.5-.2-.5-.2-.8.6-.5.1-1.4-.3-1.8.6.9-.9,2.4.5,2.6M74.4,45.7c-.3.1-.5-.2-.7,0,.1.1.6.3.7,0M75.5,46c0-.3-.3-.3-.4-.2,0,.3.2.2.4.2M91,50.3c.1-.4,0-.6.2-1.1-.2,0-.2-.2-.3-.2,0,.2-.1.5-.2.8.1.2.2.4.4.5M53.5,50.9c.4.2.5-.1.8-.2,0-.4-.4-.6-.8-.4-.4-.2-.6-.7-.8-1-.3,0-.6,0-.8.2.4,0,.8.3.9.8.2,0,.4-.1.5,0,0,.2,0,.4,0,.5M52.8,50.6c0,.3.1.3.4.3,0-.2-.1-.3-.4-.3M89.2,51.1h.5c0-.4-.1-.5-.5-.5-.2.1,0,.4,0,.5M91.2,51.5c0,.7.3,1.4.8,2,0-.6,0-2.1-.8-2M91.9,54.9c.5,0,.6-1,.3-1.3-.2.4-.6.7-.3,1.3M85.7,53.8c0,.3-.4.8,0,.9.2-.1.3-.4.4-.6-.2,0-.1-.3-.4-.3M90.9,58c.1,0,.2,0,.3,0-.2-.9.7-1.6.3-2.7h-.2c0,.5-.7.5-.8,1.1-.1.5.1,1.3.5,1.7M92,56.4c-.7.4-.7,1.4-.8,2.4.4,0,.5-.1.7-.2-.2-1,0-1.2.2-2.1,0,0,0,0-.2,0M93,57.7c0-.5.2-.9-.2-1.2-.2.4,0,.7-.2,1.2.2,0,.2.1.4,0M94.9,57.4c0-.3-.2-.6-.5-.7,0,.4,0,.6.5.7M93.6,60.2c.4,0,.3-.6.8-.5.3.1.1.7.5.8.2-.8-.4-1.5-.3-2.7-.5,0-.8-.1-1.2-.5.1,1,.6,1.8.3,2.8M94.8,59c.1,0,.3.1.5.2-.1-.4,0-.7,0-1.4-.1,0-.2-.2-.4-.2-.2.7.1.9-.2,1.4M93,58.7c0-.1-.2-.1-.3-.2-.3.3.3.6.3.2M91.2,59.8c-.4-.4-.8-1.3-1.5-.9.1.7.8,1,1.5.9M91.9,59.8c.2,0,.3-.1.5-.2,0-.2-.2-.2-.3-.4,0,.1-.2.3-.2.5M91.5,59.9v.3c.2,0,1.2.2,1-.3-.2.1-.7,0-1,0M96.2,59.9c-.2,0-.2.1-.4,0,.1.3,0,.6,0,.9.4-.2.2-.6.4-1M80.2,61.1c-.2-.3,0-1.1-.4-1.1-.2.8-.9,1.1-1.5,1.5,0,1-.3,1.8,0,2.7.8-.6,1.2-1.6,1.4-2.8.2,0,.4,0,.5-.2M89.5,63.8c-.3.5-.7,1.4-.8,1.8-.1.8-.2.3-.2,1.2.8.3.8-.3,1.7-.1.8.5.5,1.4.4,2.2,1-.1,1.4-.8,1.9-1.3.8-.8,2.1-2.7,1.6-4.4.5-.8.5-2.4.2-2.4,0,0-.4,1.3-.7,1.6,0,0-.3-.4-.6-.4.1-.5.6-.6.3-1.3-.2,0-.4,0-.6.1-.6,1.1-.7.7-1.4,1-.1,1-1.2,1.4-1.8,1.9M80.2,62.2c0,.1,0,.2,0,.3.2,0,.3,0,.3-.2,0,0-.1,0-.2,0M45.7,63.4v-.3c-.2,0-.3-.2-.4,0,.1,0,0,.3.4.2M90.7,69.5c-.2,0-.3,0-.5,0,0,.3-.5.4-.5.8.6,0,.6-.5.9-.8M67.4,42.3c0,.4.5.2.7.5,0,.6-.2.7-.5.9-.3,0-.6-.2-.8-.3-.6.5-.7,1.5,0,2.1.4-.1,1.1-.3,1.4,0,.1-.2.1-.5.2-.8.8-.2,1.2-1.2,2.1-1.1.6,0,1,.7,1.5,1.2,0,.3-.1.3,0,.6.3,0,.4-.3.5-.5-.2-.6-.7-.9-.8-1.5.4.1.7.4,1.1.4-.2,1.1.9,1.1.8,1.8.4-.2.2-1,.9-.8,0,.6.2.9.5,1.2.4,0,.4-.4.9-.3.3.3,0,1,.2,1.5-.3.4-.8.1-1.1.5-.4,0-.5-.4-.8-.5-1.1.7-1.7-.4-2.9-.5-.2-.3-.1-.7-.5-.8-.5,0-1.1.3-1.5,0-.5.4-1.6.5-2.3.4-1,.5-1.2,1.8-2.3,2.1-.2,1.2-1.9,3.1-1,4.4.2.3.5.4.6.7.1.3,0,.7.2,1.1.9.7,2.9.8,4,.2.9.3,1.5.2,2.5.3,0,.4.2.5.2.8-.2.3-.3.5-.4.8-.1,1.1,1,1.4,1.1,2.7,0,1-.6,2.2-.6,2.9,0,.3.3.6.3.9,0,.8-.4,1.8.4,2.3,0,.6.2,1.1.5,1.5.6-.4,1.3-.3,1.8-.5,1-.4,1.3-1.7,2.1-2.4-.2-1.9,1.8-2.5,1.6-4.1,0-.4-.3-.5-.4-1,.8-1.8,2.1-3.1,2.8-5-.3-.4-1,0-1.6,0-1.3-1.2-1.9-3.1-2.6-4.9.6,0,.8.8.8,1.3.5.9,1.2,1.7,1.5,2.8.9-.2,2.6-.8,2.8-1.7,0-.1,0-.8,0-.9,0-.3-.3-.5-.5-.7-.1.2-.2.4-.5.5-.5-.4-1-1.1-.9-1.8.7-.1.6.6.8.9.4,0,.4-.3.8-.2.1.3.3.5.4.8.9-.6,1.9-.2,1.8,1,0,.2.2.3.5.3.4,1.3,1.1,2.3,1.8,3.4.3-.2.2-.7.5-.9-.7-1.1.3-2.1.9-2.8.4.2.5.8,1.1.9,0,.2,0,.3,0,.4.1.2.4.2.6.2.1.8.2,1.7.7,2.1-.1.6,0,1.1.2,1.7-.2,0-.2-.2-.5-.2.4,1.1.5,2.4,1.2,3.1.3-1.2-.4-1.8-.7-2.8.4.2.3-.6.3-.8,0-.6-.9-1.5-.6-2.1.4,0,.2.7.5.8,1.6-.6,0-2.1-.5-2.8.1-.8,1.3-.5,1.5-1.2,0-.7-.2-.8,0-1.4,0-.3-.4-.4-.5-.6.2-1.4-.7-2-1-2.6.7-.4.6.9,1.2,1.1.3-.3,0-1-.4-1.1,0-1-.8-2.4-1-3.8-.6-.1-1.1-.5-1.3-1-.9.1-1-.6-1.5-1,0-.3.1-.9,0-1.2.6.2.9.8,1.1,1.5.7.5,1.6.9,2.3,1.5,0-.3-.5-.9-.7-1.3-.8,0-.8-1-1.7-1-.2-.3.3-1.1-.1-1.6-.5-.6,0-1.2,0-1.4,0-.5-.9-.5-1.5-.9-.2-.2-1.6-.1-1.5,0-.3,0-.5.5-.7.5-.1-.2-.2-.4-.5-.5-.5.2-.7.6-1,.9-.7-.5-1.5-.4-1.8.4-.8,0-1.6-.8-2.3-.2-.3-.5-.9-1-1.5-.6,0,.3.1.5,0,.9-.1.1-.3.2-.6.2,0,.3,0,.7-.4.8-.1-.1-.1,0,0-.3-.1-.1-.4,0-.6,0-.1-.3.3,0,.2-.3-.1-.1-.3-.2-.5,0,.3.8-.6,1.3-.9,2.1-.2-.4.2-.8.3-1.1-.4-.5-1.4,0-1.7-.7-1.7-.1-1.3,1.9-2.5,2.5.1.1,0,.5.2.6.5,0,.6-.3,1-.3.2.2.1.7.4.8.2,0,.3-.2.6-.2-.1-.4-.3-.7-.5-1.1.3-.2.2-.7.6-.8.6.7.8,2.8-.7,2.9-.2-.3-.4-.4-.8-.7,0,.2-.2.5-.3.7-.6.2-1.1.3-1.4.8-.6-.4-.8.2-1.3.3M78.4,43.2c.2.2,0,.8.2,1,0,.3.5,0,.6.2,0,.4,0,.9,0,1.5-.7.1-1.1-.3-1.3-.9-.4-1-.8-2.3.5-1.8M74.5,43.1c.4,0,.3.5.6.5.3,0,.3-.4.7-.3.2.4.3.8.8.8,0,.3-.2.4-.2.5-.7-.4-1.3,0-2,0,.4-.3,0-1.1.2-1.5M89.9,71.9c0,0,.4.2.5.1.4,0,.6-.4,1-.7,0,0,.4,0,.5-.1,0,0,0,0,.1-.2.1-.1.2,0,.1-.4-.8.3-1.5.8-2.1,1.3M48.6,48.4c-.5,1.2.7,1.8.7,3,.3.1.1-.2.4-.2,0,.3.3.4.3.8.2.1.6,0,.7.2,0,.4-.1.6,0,1,.2.2.6.1.8.2,0,.2.2.3.2.5-.2.4-.4.9-.6,1.3.3.7,0,1.6,0,2.3.2.8,1.1,1.6,1.1,2.8,1.2.4,1.2,2,1.8,3,0,1.5.8,2.3.5,3.8.4.7.5,1.7,1.1,2.2.7.6,2.1,2.3,1.8,1.6-.2-.2-1-2.2-.9-3.4,0-.8.5-1.6.8-2.5.6-1.5.1-2.3,1.3-2.8,0,0,.2,0,.2,0,0,0,0,0,0-.1-.7-1.6.9-2.8.7-4-.2-.7-.7-1.5-.9-1.6-.2-.1-.6,0-1.2,0-.4-.8-1.4-1-1.4-2.2-.4-.3-.9-.3-.9-1-.6.1-.8-.6-1.3-.8-.3,0-.5.3-.8.5-.5-.3-1,0-1.5.2-.3,0-.4-.2-.6-.4,0-.7.2-1.2-.2-1.7.1-.6.4-1,0-1.4-.4,0-.3.5-.8.3-.3-.9.9-1.5.8-2.5.5-.1,1.1,0,1.5-.2.3.2.3.9,0,1.1,0,.1.1.2.3.2.5-.4.3-1,.5-1.5.2-.5.9-.9,1.3-1.5.1-.2,0-.4.2-.5,0,0,.3,0,.5-.2,0,0,0-.3.2-.4.4-.3,1.1-.5,1.5-.8.3-.2.5-.4,1-.5.3-.5.1-1.4.8-1.5,0,.4,0,.5,0,.8,1-.3.5-1.6,1.3-2.1-.2-.9.4-1.2.8-1.8-.2-.2-1-.2-.7-.8.4-.1.3.3.5.3.5,0,.5-.6.8-.8.3,0,.2.3.5.2.1-.5.1-1.1.3-1.5-.9-.1-.9,1.4-2,1.3-1.4.9-1.7,2.8-2.9,3.8,0-.5-.4-1.2-.4-1.6,0-.3.4-1,.7-1.2.2-.2.6-.2.8-.3.4-.3.6-.7.9-.8,1.4.1,1.9-.9,2.5-1.8-.5-.4-1,0-1.4.3,0-.2-.2-.1-.2-.2-.3-.2.3-.4,0-.6-.3.5-1.2.5-1.7.9-.1.3.2.9-.4.8-.2-.2.2-.3.2-.5-.6-.5-1.2-.5-1.8,0,0-.3.3-.2.3-.5-.2,0-.4-.2-.5-.3-.4.2-.8.7-1.3.5,0,0-.3-.2-.6-.3-.1,0-.3.2-.4.2,0,.3-.2.9-.1,1.2-1.3,0-1.5,1.1-2.6,1.2.4.6,1.4-.6,1.9,0-.9,1.2-1.4,2.7-2.7,3.4-.3,1.2-1.2,1.7-1.8,2.5-.1,1.3-.3,2.1-.8,3,.2.5.2,1.1.6,1.4M59.4,36.5c.4,0,1,0,1.1-.2-.1.2-.7.3-1.1.2h0M93.4,69.3c0,0-.2,0-.4,0-.1,0-.2-.3-.2-.2,0,0,0,.4,0,.4,0,.3-.2.4-.5.5.1.2.1.5,0,.6.6-.6,1.1-1.1,1.1-1.3M105.5,89.4l-4.2-11.4c2.2-1.8,3.8-3.8,4.5-5l.4-.6h-.7c0-.1-1.5-.3-3.6,0,2.5-2.7,3.9-5.7,4.1-8.8v-1c0,0-.7.6-.7.6,0,0-.8.6-2.3,1.1,2.6-4,3.7-8.1,3.2-12.5v-1.2c-.1,0-.8.9-.8.9,0,0-.8,1.1-2.1,2.6,1.1-3.2,2.5-9.6-1.8-14.2l-.3-.3-.3.3s-.6.6-1.3,1.8c-.6-1-1.2-1.7-1.7-2.2-.1-.1-.2-.2-.3-.4-.2-.2-.3-.4-.5-.6-.5-.6-1-1.2-1.1-1.6l-.3-.8-.5.7c0,0-.8,1-1.1,3.5-1-1.2-2.2-2.3-3.4-3.3l4.6-6.6-.4-.3c-6-4.3-13.2-6.8-20.9-7.4.2-1.7.4-2.4.6-2.6,2.1,0,3.6-.1,4.2-.2,0,.6,0,1.2,0,1.2v.4h2.3v-.4s0-.4.1-.9c.2,0,.4.1.6.1.8,0,1.4-.8,1.4-1.7s-.6-1.7-1.4-1.7-.4,0-.6.1c0-.5,0-.9,0-.9v-.4h-2.3v.4c0,.4-.1.8-.1,1.2-.8,0-2.5-.2-5-.2-.1-.3-.4-1.4-.4-4.7v-7.9h.5s.4,0,.4,0v-2.2h-.4c-.6,0-1.2-.1-1.8-.2.1-.2.2-.4.2-.7C72.2.7,71.5,0,70.5,0s-1.7.7-1.7,1.5,0,.5.2.7c-.6,0-1.2,0-1.8.1h-.4v2.3h.4s.5,0,.5,0v7.9c0,3.3-.3,4.4-.4,4.7-1.7,0-3.4.1-5,.2,0-.6,0-1.2,0-1.2v-.4h-2.3v.4s0,.4-.1.9c-.2,0-.4-.1-.6-.1-.8,0-1.4.8-1.4,1.7s.6,1.7,1.4,1.7.4,0,.6-.1c0,.5,0,.9,0,.9v.4h2.3v-.4s0-.6.1-1.2c1.4,0,2.8.2,4.2.2.1.2.4.9.5,2.6-7.8.6-15,3.2-21,7.6l-.4.3,4.5,6.5c-1.2,1-2.3,2.1-3.4,3.3-.3-2.5-1-3.4-1.1-3.5l-.5-.7-.3.8c-.2.5-.6,1-1.1,1.6-.2.2-.3.4-.5.6-.1.1-.2.2-.3.4-.4.5-1.1,1.3-1.7,2.2-.7-1.2-1.3-1.7-1.3-1.8l-.3-.3-.3.3c-4.3,4.6-2.9,11.1-1.8,14.2-1.3-1.4-2.1-2.6-2.1-2.6l-.7-.9v1.2c-.6,4.4.4,8.5,3,12.5-1.5-.5-2.3-1.1-2.3-1.1l-.8-.6v1c.3,3.1,1.7,6.1,4.2,8.8-2.1-.2-3.5,0-3.6,0h-.7c0,.1.4.7.4.7.8,1.2,2.3,3.2,4.5,5l-4.2,11.4h-3.7v2.5h1.5c2.7,1.8,8,4.7,14.6,4.7h0c6.6,0,12-2.9,14.6-4.7h1.5v-2.5h-3.6l-.9-2.3c2.6.7,5.3,1.1,8,1.3l.3,8.4,2.6,3.9,2.6-3.9.3-8.4c2.7-.2,5.4-.6,8-1.3l-.9,2.3h-3.6v2.5h1.5c2.7,1.8,8,4.7,14.6,4.7h0c6.6,0,12-2.9,14.6-4.7h1.5v-2.5s-3.7,0-3.7,0ZM81.9,17.9c.3,0,.5.4.5.8s-.2.8-.5.8-.5-.4-.5-.8.2-.8.5-.8M79.7,16.7h.6c0,.7,0,1.3,0,2,0,.7,0,1.5,0,2h-.6c0-.5-.1-1.5-.1-2s0-1.4.1-2M59.1,19.4c-.3,0-.5-.4-.5-.8s.2-.8.5-.8.5.4.5.8-.2.8-.5.8M61.3,20.6h-.6c0-.5,0-1.3,0-2s0-1.5,0-2h.6c0,.5.1,1.5.1,2s0,1.4-.1,2M104.6,89.4h-11v-4.3c1.8-.2,3.8-.9,6.1-2.6l.8-.6-1-.2c-.6-.1-1.2-.3-1.8-.6-.2,0-.5-.3-.8-.5l-.4-.2c1.5-.3,2.7-.8,3.6-1.4.2-.1.3-.2.5-.3,0,0,4,10.8,4,10.8ZM89.6,86.1c.6,0,1.2-.5,1.3-1.1.5,0,1.1.1,1.6.1h.1s0,4.2,0,4.2h-11.1l1-2.6c2-.6,4-1.3,5.9-2.1-.1.7.3,1.4,1,1.5,0,0,.2,0,.2,0M89.1,84.9c0-.3.2-.5.5-.5.3,0,.5.2.5.5s-.2.5-.5.5c-.3,0-.5-.2-.5-.5M90.7,84.1c-.1-.1-.3-.3-.4-.3.6-.3,1.2-.6,1.8-1,0,0,.1,0,.2,0,.6,0,1.2,0,1.8,0,.6-.1,1.2-.3,1.7-.5-.6,0-1.2-.1-1.8-.2h-.7s.2-.2.2-.2l-1.3-2.2c1.6.1,3.1,1.1,4.1,1.8.3.2.6.4.9.5.4.2.8.3,1.1.4-3.1,2.1-5.8,2.1-7.6,1.7M90.9,74.7c-.5,0-.9.3-1.1.7l-.4-.8c3-2.2,5.5-4.8,7.3-7.9,0,.8,0,1.7-.2,2.5h0c-.7,2.5-2.7,4.6-4.4,6.1-.2-.4-.6-.6-1.1-.6M91.4,76c0,.3-.2.5-.5.5-.3,0-.5-.2-.5-.5h0c0-.3.2-.5.5-.5.3,0,.5.2.5.5M92.2,77c.3,0,.5.2.5.5,0,.3-.2.5-.5.5s-.5-.2-.5-.5c0-.3.2-.5.5-.5h0M104.7,73.2c-1,1.4-2.7,3.4-5.1,5-1,.7-2.5,1.2-4.3,1.5-.6-.3-1.3-.6-1.9-.8l.6-.3,2.3-1.3,2.4-1.3c-.9,0-1.8.3-2.6.6-.9.3-1.7.7-2.5,1.1,0,0-.1,0-.2.1,0-.5-.3-.9-.7-1.1,1.2-.8,2.7-1.7,4.7-2.4,3.2-1.2,6-1.2,7.3-1.1M105.1,64.4c-.5,3.6-2.7,6.4-4.6,8.2-1.5.3-2.9.7-4.3,1.2.8-.7,1.5-1.4,2.2-2.2.8-.9,1.5-1.8,2-2.8-.8.8-1.7,1.5-2.5,2.3l-2.5,2.2-.6.5c1.2-1.3,2.1-2.8,2.6-4.5.1-.2.2-.4.4-.6.3-.4.6-.7.8-1,.6,0,1-.5,1.1-1,.1-.1.3-.2.4-.3,0,0,0,0,.1,0,.5,0,.9-.3,1.1-.6.4-.2.9-.3,1.4-.5,1.1-.3,1.9-.7,2.4-.9M97.6,67.5h0s0,0,0,0h0M98,66.5c0-.3.2-.5.5-.5.3,0,.5.2.5.5h0c0,.3-.2.5-.5.5-.3,0-.5-.2-.5-.5M99.8,65.2c0-.3.2-.5.5-.5.3,0,.5.2.5.5h0c0,.3-.2.5-.5.5-.3,0-.5-.2-.5-.5M103.4,55.5c.9-.9,1.6-1.8,2-2.4.2,4.1-1,7.9-3.8,11.7h-.2c0-.2-.3-.4-.5-.6.5-.7.9-1.4,1.2-2.1.3-.5.5-1,.6-1.6.2-.5.3-1.1.3-1.7-.4,1-1,2-1.6,2.9-.5.8-1,1.5-1.6,2.3-.6.1-1,.6-1,1.2h0s-.1.2-.1.2c-.5-.2-1.1,0-1.5.5,0,0,0-.2,0-.3,1.1-2,1.8-4.2,2.2-6.5.9-.7,1.7-1.4,2.5-2.2.7,0,1.3-.5,1.4-1.2,0,0,0-.2,0-.3M101.8,55.4c0-.3.2-.5.5-.5.3,0,.5.2.5.5s-.2.5-.5.5c-.3,0-.5-.2-.5-.5h0M101.2,40.9c3.8,4.5,2.1,10.8,1.1,13.5-.7,0-1.3.4-1.4,1.1,0,.4,0,.7.3,1-.5.4-.9.9-1.4,1.3.1-1,.2-2,.1-2.9.4-.6.7-1.2.9-1.8.4-.9.6-1.8.7-2.8.1-.9.1-1.9,0-2.9-.3.9-.5,1.8-.7,2.7-.2.9-.5,1.7-.9,2.6,0,.2-.1.3-.2.5,0-.9-.2-1.7-.4-2.5,1-1.7,1.4-3.3,1.3-5.4,0-.9-.3-1.8-.7-2.6.4-.8.8-1.4,1.1-1.7M95.6,38c.2.4.5.7.8,1.1.2.2.3.4.5.5,0,.1.2.2.3.4.9,1,2.5,3,2.6,5.2,0,1.5-.2,2.8-.8,4.1-.4-1.3-.9-2.6-1.5-3.9,0-.4,0-.9,0-1.3,0-.4-.2-.9-.3-1.3-.2-.4-.4-.8-.7-1.1,0,.4,0,.9,0,1.3,0,.2,0,.4,0,.6-.5-.8-1.1-1.6-1.7-2.4.1-1.6.4-2.6.7-3.2M94,30.6l-4,5.8c-4.4-3.4-10.1-5.6-16.3-6.2v-.6c0-2.6,0-4.6.2-6,7.4.6,14.4,3,20.1,7M70.5.9c.4,0,.8.3.8.6s-.4.6-.8.6-.8-.3-.8-.6.4-.6.8-.6M67.7,3.7v-.6c.6,0,1.8-.1,2.9-.1s2.2,0,2.9.1v.6c-.7,0-2.1.2-2.9.2s-2.2-.1-2.9-.2M72.8,17.2h-.9c-.9,0-1.9,0-2.8,0h-.9c.2-.7.3-2.1.3-4.7v-7.8c.6,0,1.3,0,1.9,0,.5,0,1.3,0,1.9,0v7.8c0,2.6.1,3.9.3,4.7M62.3,19v-.6c.9,0,3.3-.2,6.8-.2h2.8c2.3,0,4.5,0,6.8.2v.6c-1,0-3.9.2-8.2.2s-7.2-.2-8.2-.2M73.5,20.1c-.5,1.5-.8,4.7-.8,9.5v.5c-.6,0-1.2,0-1.8,0v-9.9c.9,0,1.8,0,2.6,0M67.5,20.1c.8,0,1.6,0,2.6,0v9.9c-.6,0-1.2,0-1.8,0v-.5c0-4.7-.3-8-.8-9.5M47,30.7c5.8-4.1,12.7-6.5,20.2-7.1.1,1.4.2,3.3.2,5.9v.6c-6.3.6-11.9,2.9-16.4,6.3l-4-5.7ZM70.5,30.9c15.7,0,28.5,10.9,28.5,24.3s0,1.7-.1,2.5c-.1.4-.8.5-.6,1,.1-.3.5-.5.6-.8-1.1,8.4-7.2,15.5-15.7,19.1h0,0s0,0-.1,0c-.2,0-.5,0-.5-.2l-.4-.2c-.1-.3-.7-.3-.7-.6-.7-.2-.7-.3-1.3-.4-.5,0-.9-.3-1.5-.3-.6,0-1.8.7-2.5.8-.2,0-.2,0-.4-.3-.8-.8-2.3-.3-3.9.4-.4.2-1,.6-1.6.5-1.1,0-1.9-.8-3.4-.8-.5,0,0,1.1-.2,1.6-.2,0-.9-.4-.9-.4,0,0-.7,0-.9-.1-.3,0-.5-.2-.6,0-.4.5-.8-.9-1.6-.9-.4-.5-1-1.1-1.6-1.7-.3-.3-1-2-1-1.5,0,1.2,1.1,1.8,1.1,2.8,0-.1-.3,0-.2,0,0,.1-.3.2-.3.5-.4,0-1.2,0-1.3.3-.2.4-.9.6-1.4.6-9.4-4-15.9-12.3-15.9-21.8s12.8-24.3,28.5-24.3M50.1,74.7c-.5,0-.9.3-1.1.6-1.8-1.5-3.8-3.6-4.4-6.1h0c-.2-.8-.3-1.6-.2-2.5,1.8,3,4.3,5.7,7.3,7.9l-.4.8c-.2-.4-.7-.7-1.1-.7M50.6,76c0,.3-.2.5-.5.5s-.5-.2-.5-.5.2-.5.5-.5.5.2.5.5M47.7,82h-.6c-.6,0-1.2.1-1.8.2.6.3,1.1.4,1.7.5.6,0,1.2.1,1.8,0,0,0,.1,0,.2,0,.6.3,1.2.6,1.8,1-.2,0-.3.2-.4.3-1.8.4-4.5.4-7.6-1.7.3-.1.7-.3,1.1-.4.2-.1.5-.3.9-.5,1-.7,2.5-1.7,4.1-1.8l-1.3,2.2s.2.1.2.1ZM51.3,86.1c.7,0,1.3-.6,1.3-1.3,0,0,0-.2,0-.2,1.9.9,3.9,1.6,5.9,2.1l1,2.6h-11.1v-4.2h.1c.6,0,1.1,0,1.6-.1,0,.6.6,1.1,1.3,1.1M50.9,84.9c0-.3.2-.5.5-.5.3,0,.5.2.5.5s-.2.5-.5.5c-.3,0-.5-.2-.5-.5M48.2,77.5c0-.3.2-.5.5-.5.3,0,.5.2.5.5s-.2.5-.5.5-.5-.2-.5-.5h0M41.2,45.3c0-2.2,1.7-4.2,2.6-5.2.1-.2.2-.3.3-.4.1-.2.3-.4.5-.5.3-.4.6-.7.8-1.1.2.6.5,1.6.7,3.2-.6.8-1.2,1.6-1.7,2.4,0-.2,0-.4,0-.6,0-.4,0-.8,0-1.3-.3.3-.5.7-.7,1.1-.2.4-.3.8-.3,1.3,0,.4,0,.9,0,1.3-.6,1.3-1.1,2.6-1.5,3.9-.6-1.2-.8-2.5-.8-4.1M39.8,40.9c.3.3.7.9,1.1,1.7-.4.8-.6,1.7-.7,2.6,0,2.1.3,3.7,1.3,5.4-.2.8-.3,1.7-.4,2.6,0-.1-.1-.3-.2-.5-.3-.9-.6-1.7-.9-2.6-.2-.9-.5-1.8-.7-2.7-.1.9,0,1.9,0,2.9.1,1,.4,1.9.7,2.8.2.6.6,1.2.9,1.8,0,.1,0,.3,0,.4,0,.8,0,1.7.1,2.5-.5-.4-1-.8-1.4-1.3.5-.5.4-1.3-.1-1.8-.3-.2-.6-.3-1-.3-1-2.7-2.7-8.9,1.1-13.5M39.1,55.4c0,.3-.2.5-.5.5s-.5-.2-.5-.5h0c0-.3.2-.5.5-.5s.5.2.5.5M35.6,53.1c.7.8,1.3,1.6,2.1,2.4,0,.7.4,1.3,1.1,1.4,0,0,.2,0,.3,0,.8.8,1.6,1.5,2.5,2.2.4,2.3,1.2,4.4,2.2,6.5,0,0,0,.2,0,.3-.3-.5-.9-.7-1.5-.5h-.1c0-.1,0-.2,0-.2,0-.6-.4-1.1-1-1.2-.6-.7-1.1-1.5-1.6-2.3-.6-.9-1.2-1.9-1.6-2.9,0,.6.2,1.1.3,1.7.2.5.4,1.1.6,1.6.4.7.8,1.4,1.2,2.1-.2.2-.4.4-.5.7h-.2c-2.7-3.8-4-7.6-3.8-11.7M43.4,67.5h0s0,0,0,0h0M42.9,66.5c0,.3-.2.5-.5.5s-.5-.2-.5-.5c0-.3.2-.5.5-.5.3,0,.5.2.5.5M41.2,65.2c0,.3-.2.5-.5.5s-.5-.2-.5-.5.2-.5.5-.5.5.2.5.5M35.9,64.4c.8.4,1.6.7,2.4.9.5.1.9.3,1.4.5.2.4.6.6,1.1.6s0,0,.1,0c.1,0,.3.2.4.3,0,.6.6,1,1.1,1,.3.3.6.6.8,1,.1.2.3.4.4.6.5,1.7,1.4,3.2,2.6,4.5l-.6-.5-2.5-2.2c-.8-.7-1.7-1.5-2.5-2.3.5,1,1.3,1.9,2,2.8.7.8,1.4,1.5,2.2,2.2-1.4-.6-2.8-1-4.3-1.2-1.8-1.8-4-4.6-4.6-8.2M36.3,73.2c1.3,0,4,0,7.3,1.1,1.7.6,3.3,1.4,4.7,2.4-.4.2-.7.7-.7,1.1,0,0-.1,0-.2-.1-.8-.4-1.6-.8-2.5-1.1-.9-.3-1.7-.6-2.6-.6l2.4,1.3,2.3,1.3.6.3c-.7.2-1.3.4-1.9.8-1.8-.3-3.2-.8-4.3-1.5-2.4-1.6-4.1-3.6-5.1-5M40.4,78.6c.2.1.3.2.5.3.9.6,2.2,1.1,3.6,1.4-.1,0-.3.2-.4.2-.3.2-.6.4-.8.5-.6.3-1.2.5-1.8.6l-1,.2.8.6c2.2,1.7,4.3,2.4,6.1,2.6v4.3h-11s4-10.8,4-10.8ZM47.9,95.7h0c-5.5,0-10.1-2.1-12.9-3.8h25.9c-2.8,1.7-7.4,3.8-12.9,3.8M63.1,91h-30.4v-.7h30.4v.7ZM70,98.4l-1.3-2-.3-8.1c.5,0,1,0,1.6,0v10ZM72.2,96.5l-1.3,2v-10c.5,0,1,0,1.6,0,0,0-.3,8.1-.3,8.1ZM70.5,87.5c-7.9,0-15.4-2.1-21.8-6l3.8-6.4c5,3.4,11.3,5.4,18.1,5.4s13.1-2,18.1-5.3l3.8,6.4c-6.4,3.9-13.9,6-21.8,6M93.1,95.7h0c-5.5,0-10.1-2.1-12.9-3.8h25.9c-2.8,1.7-7.4,3.8-12.9,3.8M108.3,91h-30.4v-.7h30.4v.7Z"/>
      <path class="st1" d="M.2,115.1c0-2.7-.1-5.4-.2-8,.5,0,1,.1,1.5.2.5,0,1,0,1.5-.2-.1,2.7-.2,5.4-.2,8v5.3c0,2.7.1,5.4.2,8-.5,0-1-.1-1.5-.2-.5,0-1,0-1.5.2.1-2.7.2-5.3.2-8v-5.3Z"/>
      <path class="st1" d="M26.6,128.8c-4.7-5.5-10.3-11.5-15.6-17.1,0,1.1,0,3,0,6.3s.1,9.2.3,10.4c-.4,0-.7-.2-1.1-.2-.4,0-.8,0-1.1.2.2-1.5.6-9.4.6-13.5s0-6.9,0-8.3h.5c5,5.5,11.9,12.9,15.7,16.7,0-5.5,0-11.6-.2-16.3.3,0,.7.2,1.1.2s.6,0,1-.2c-.2,1.8-.5,7.9-.5,10.4s0,10,0,11.4h-.4Z"/>
      <path class="st1" d="M37.9,115.1c0-2.1,0-4.3,0-6.4-2.1,0-4.9.1-6.6.3,0-.3.2-.6.2-1s0-.6-.2-1c2.7,0,5.3.1,8,.2,2.7,0,5.3,0,8-.2,0,.3-.1.7-.2,1,0,.3,0,.6.2,1-1.7-.2-4.5-.3-6.6-.3,0,2.1,0,4.3,0,6.4v5.3c0,2.7.1,5.4.2,8-.5,0-1-.1-1.5-.2-.5,0-1,0-1.5.2.1-2.7.2-5.3.2-8v-5.3Z"/>
      <path class="st1" d="M51.1,115.1c0-2.7-.1-5.4-.2-8,1.8,0,3.7.2,5.5.2,1.9,0,3.7,0,5.5-.2-.1.6-.1,1.2,0,1.9-2.6-.2-4.1-.4-8.1-.4,0,1.3-.1,2.4-.1,3.9s0,3.3,0,4.1c3.6,0,5.7-.2,7.5-.3,0,.3,0,.6,0,1,0,.3,0,.6,0,.9-2.1-.2-6-.3-7.5-.3,0,.7,0,1.5,0,4.5s0,3.9,0,4.6c2.8,0,6.4,0,8.4-.4,0,.3,0,.6,0,1,0,.3,0,.6,0,.9-1.8,0-3.7-.2-5.6-.2s-3.7,0-5.6.2c.1-2.7.2-5.4.2-8v-5.3Z"/>
      <path class="st1" d="M66.9,115.1c0-2.7-.1-5.4-.2-8,1.2,0,2.4.2,3.5.2s2.4-.2,3.5-.2c3.5,0,6.4,1.2,6.4,4.9s-4,5.6-6.3,5.9c1.5,1.9,6.7,8.5,8.5,10.5-.6,0-1.2-.2-1.9-.2s-1.2,0-1.8.2c-1.2-1.9-5.4-7.6-8-10.3h-1.2v2.3c0,2.7.1,5.3.2,8-.5,0-1-.1-1.5-.2-.5,0-1,0-1.5.2.1-2.7.2-5.3.2-8v-5.3ZM69.5,116.9c.6.1,1.3.2,2.1.2,2.5,0,5.9-1.1,5.9-4.7s-2.7-4.1-4.8-4.1-2.4,0-3,.2c0,2.3-.2,4.5-.2,6.7v1.8Z"/>
      <path class="st1" d="M86.2,115.1c0-2.7-.1-5.4-.2-8,1,0,2,.1,3,.2,1,0,3-.2,3.8-.2,1.9,0,6.8,0,6.8,5.2s-5.4,6.5-8.3,6.5-1.7,0-2.5,0v1.7c0,2.7.1,5.4.2,8-.5,0-1-.1-1.5-.2-.5,0-1,0-1.5.2.1-2.7.2-5.4.2-8v-5.3ZM88.7,117.4c.7.2,1.5.2,2.2.2,2.5,0,5.8-1,5.8-5.2s-2-4.3-5.2-4.3h-2.8v9.2Z"/>
      <path class="st1" d="M113.5,106.7c6.8,0,11.6,4.1,11.6,11.1s-4.8,11.1-11.6,11.1-11.6-4.1-11.6-11.1,4.8-11.1,11.6-11.1M113.5,107.8c-4.8,0-8.5,3.1-8.5,9.9s3.7,9.9,8.5,9.9,8.6-3.1,8.6-9.9-3.7-9.9-8.6-9.9"/>
      <path class="st1" d="M129.8,115.1c0-2.7-.1-5.4-.2-8,.5,0,1,.1,1.5.2.5,0,1,0,1.5-.2-.1,2.7-.2,5.4-.2,8,0,5.2,0,8.8,0,11.9,2.9,0,5.4,0,8.5-.4,0,.3-.1.6-.2.9,0,.3,0,.6.2.9-1.9,0-3.8-.1-5.7-.2-1.9,0-3.8,0-5.7.2.1-2.7.2-5.3.2-8v-5.3Z"/>
    </g>
  </g>
</svg>